<svg width="167" height="64" viewBox="0 0 167 64" fill="none" xmlns="http://www.w3.org/2000/svg">
<path fill-rule="evenodd" clip-rule="evenodd" d="M6 32.4353L6.00193 32.2349L6.00591 32.0344L6.01195 31.8339L6.02004 31.6334L6.0302 31.4329L6.04241 31.2324L6.05669 31.032L6.07302 30.8316L6.09142 30.6313L6.11188 30.431L6.1344 30.231L6.15897 30.031L6.18561 29.8312L6.21431 29.6316L6.24506 29.4322L6.27787 29.2331L6.31274 29.0341L6.34965 28.8355L6.38862 28.6371L6.42964 28.439L6.47271 28.2412L6.51781 28.0438L6.56497 27.8468L6.61415 27.6501L6.66538 27.4539L6.71863 27.258L6.77392 27.0626L6.83123 26.8677L6.89056 26.6733L6.9519 26.4794L7.01526 26.286L7.08063 26.0931L7.148 25.9008L7.21736 25.7091L7.28872 25.518L7.36206 25.3275L7.43739 25.1377L7.51469 24.9485L7.59396 24.7601L7.67519 24.5723L7.75838 24.3852L7.84352 24.1989L7.9306 24.0134L8.01962 23.8286L8.11057 23.6446L8.20344 23.4615L8.29822 23.2792L8.39491 23.0977L8.49349 22.9172L8.59396 22.7375L8.69632 22.5587L8.80054 22.3809L8.90663 22.204L9.01457 22.0281L9.12436 21.8532L9.23598 21.6793L9.34943 21.5065L9.4647 21.3346L9.58177 21.1639L9.70064 20.9942L9.82129 20.8256L9.94371 20.6582L10.0679 20.4918L10.1938 20.3267L10.3215 20.1627L10.4509 19.9998L10.5821 19.8382L10.7149 19.6779L10.8494 19.5187L10.9857 19.3608L11.1235 19.2042L11.2631 19.0489L11.4043 18.8949L11.5471 18.7422L11.6915 18.5909L11.8376 18.4409L11.9852 18.2923L12.1345 18.1451L12.2852 17.9993L12.4376 17.8549L12.5915 17.7119L12.7469 17.5704L12.9038 17.4304L13.0622 17.2919L13.2221 17.1548L13.3834 17.0193L13.5462 16.8853L13.7105 16.7529L13.8761 16.622L14.0432 16.4927L14.2116 16.3649L14.3815 16.2388L14.5527 16.1143L14.7252 15.9914L14.899 15.8702L15.0742 15.7506L15.2506 15.6327L15.4283 15.5165L15.6073 15.402L15.7876 15.2892L15.969 15.1781L16.1517 15.0688L16.3355 14.9612L16.5205 14.8553L16.7067 14.7513L16.894 14.649L17.0824 14.5485L17.2719 14.4499L17.4625 14.353L17.6542 14.258L17.8469 14.1648L18.0407 14.0735L18.2354 13.9841L18.4312 13.8965L18.6279 13.8108L18.8256 13.727L19.0242 13.6451L19.2237 13.5652L19.4241 13.4871L19.6254 13.411L19.8275 13.3368L20.0305 13.2647L20.2343 13.1944L20.4389 13.1261L20.6442 13.0598L20.8503 12.9955L21.0572 12.9332L21.2648 12.8729L21.473 12.8146L21.682 12.7583L21.8916 12.7041L22.1018 12.6519L22.3126 12.6017L22.5241 12.5536L22.7361 12.5075L22.9486 12.4635L23.1617 12.4216L23.3753 12.3817L23.5894 12.3439L23.804 12.3082L24.019 12.2746L24.2344 12.2431L24.4502 12.2137L24.6664 12.1864L24.883 12.1612L25.0999 12.1381L25.3171 12.1171L25.5346 12.0983L25.7524 12.0815L25.9704 12.067L27.1428 12L27.2097 17.6487L27.248 17.6482L27.4099 17.648L27.5718 17.6494L27.7337 17.6523L27.8958 17.6569L28.0578 17.663L28.2199 17.6707L28.382 17.68L28.5441 17.691L28.7061 17.7035L28.8682 17.7176L29.0301 17.7333L29.192 17.7506L29.3537 17.7696L29.5154 17.7901L29.6769 17.8122L29.8383 17.8359L29.9995 17.8612L30.1606 17.8881L30.3214 17.9166L30.4821 17.9467L30.6425 17.9784L30.8026 18.0116L30.9626 18.0465L31.1222 18.0829L31.2815 18.121L31.4406 18.1606L31.5993 18.2018L31.7576 18.2446L31.9156 18.2889L32.0733 18.3349L32.2305 18.3824L32.3873 18.4314L32.5437 18.4821L32.6997 18.5343L32.8552 18.588L33.0102 18.6433L33.1648 18.7002L33.3188 18.7586L33.4723 18.8185L33.6253 18.88L33.7777 18.9431L33.9295 19.0076L34.0808 19.0737L34.2315 19.1412L34.3815 19.2104L34.5309 19.2809L34.6797 19.3531L34.8278 19.4267L34.9752 19.5018L35.1219 19.5784L35.2679 19.6564L35.4132 19.736L35.5577 19.8169L35.7015 19.8994L35.8445 19.9833L35.9867 20.0687L36.1281 20.1555L36.2687 20.2437L36.4084 20.3334L36.5473 20.4244L36.6853 20.5169L36.8225 20.6108L36.9587 20.706L37.0941 20.8027L37.2285 20.9007L37.3619 21.0001L37.4945 21.1009L37.626 21.203L37.7566 21.3065L37.8861 21.4112L38.0147 21.5173L38.1422 21.6248L38.2687 21.7335L38.3942 21.8435L38.5186 21.9548L38.6418 22.0674L38.764 22.1813L38.8851 22.2964L39.0051 22.4127L39.1239 22.5303L39.2416 22.6491L39.3581 22.7692L39.4735 22.8904L39.5876 23.0128L39.7006 23.1364L39.8123 23.2612L39.9228 23.3871L40.0321 23.5142L40.1401 23.6424L40.2469 23.7717L40.3524 23.9022L40.4566 24.0337L40.5595 24.1663L40.6611 24.3L40.7614 24.4348L40.8603 24.5706L40.9579 24.7075L41.0541 24.8454L41.149 24.9842L41.2425 25.1241L41.3346 25.265L41.4253 25.4069L41.5145 25.5497L41.6024 25.6934L41.6888 25.8381L41.7738 25.9837L41.8573 26.1302L41.9394 26.2776L42.02 26.4259L42.0991 26.575L42.1767 26.725L42.2528 26.8758L42.3274 27.0274L42.4005 27.1799L42.4721 27.3331L42.5421 27.4871L42.6106 27.6419L42.6775 27.7974L42.7428 27.9537L42.8066 28.1106L42.8688 28.2683L42.9294 28.4266L42.9884 28.5857L43.0458 28.7453L43.1016 28.9057L43.1558 29.0666L43.2084 29.2282L43.2593 29.3903L43.3086 29.553L43.3562 29.7163L43.4022 29.8801L43.4465 30.0445L43.4892 30.2094L43.5301 30.3747L43.5695 30.5406L43.6071 30.7069L43.643 30.8737L43.6773 31.0408L43.7098 31.2085L43.7406 31.3765L43.7698 31.5449L43.7972 31.7136L43.8229 31.8827L43.8469 32.0522L43.8691 32.2219L43.8896 32.392L43.9084 32.5623L43.9254 32.7329L43.9407 32.9037L43.9543 33.0748L43.9661 33.2461L43.9761 33.4176L43.9844 33.5892L43.991 33.7611L43.9957 33.933L43.9988 34.1051L44 34.2773L43.9995 34.4496L43.9972 34.622L43.9931 34.7945L43.9873 34.9669L43.9797 35.1394L43.9704 35.3119L43.9592 35.4844L43.9463 35.6569L43.9316 35.8293L43.9151 36.0017L43.8969 36.174L43.8768 36.3461L43.855 36.5182L43.8315 36.6901L43.8061 36.8619L43.779 37.0335L43.7501 37.2049L43.7194 37.3761L43.687 37.5471L43.6528 37.7179L43.6168 37.8884L43.579 38.0586L43.5395 38.2286L43.4983 38.3982L43.4552 38.5675L43.4104 38.7364L43.3639 38.905L43.3156 39.0732L43.2656 39.241L43.2138 39.4085L43.1602 39.5754L43.105 39.742L43.048 39.908L42.9892 40.0736L42.9288 40.2387L42.8666 40.4032L42.8027 40.5672L42.7371 40.7307L42.6698 40.8936L42.6008 41.0559L42.5301 41.2177L42.4577 41.3787L42.3836 41.5392L42.3078 41.699L42.2304 41.8581L42.1512 42.0166L42.0705 42.1743L41.988 42.3314L41.904 42.4876L41.8182 42.6432L41.7309 42.7979L41.6419 42.9519L41.5513 43.1051L41.4591 43.2574L41.3653 43.409L41.2698 43.5596L41.1728 43.7094L41.0743 43.8583L40.9741 44.0063L40.8724 44.1534L40.7691 44.2996L40.6643 44.4448L40.5579 44.5891L40.45 44.7324L40.3406 44.8747L40.2297 45.0159L40.1173 45.1562L40.0034 45.2954L39.888 45.4335L39.7711 45.5706L39.6528 45.7066L39.533 45.8415L39.4118 45.9753L39.2892 46.108L39.1652 46.2395L39.0397 46.3699L38.9129 46.499L38.7846 46.627L38.655 46.7538L38.5241 46.8794L38.3918 47.0038L38.2582 47.1269L38.1232 47.2488L37.9869 47.3693L37.8494 47.4886L37.7105 47.6067L37.5704 47.7234L37.429 47.8387L37.2864 47.9528L37.1425 48.0655L36.9974 48.1768L36.8511 48.2867L36.7036 48.3953L36.555 48.5025L36.4051 48.6082L36.2541 48.7126L36.102 48.8155L35.9488 48.9169L35.7944 49.0169L35.639 49.1155L35.4825 49.2125L35.3249 49.3081L35.1662 49.4021L35.0065 49.4947L34.8459 49.5857L34.6841 49.6751L34.5215 49.7631L34.3578 49.8494L34.1932 49.9342L34.0276 50.0175L33.8611 50.0991L33.6937 50.1791L33.5254 50.2576L33.3562 50.3344L33.1862 50.4096L33.0153 50.4831L32.8436 50.555L32.6711 50.6253L32.4978 50.6939L32.3237 50.7608L32.1488 50.8261L31.9732 50.8896L31.7968 50.9515L31.6198 51.0116L31.4421 51.0701L31.2636 51.1268L31.0845 51.1818L30.9048 51.2351L30.7245 51.2866L30.5435 51.3364L30.362 51.3845L30.1798 51.4307L29.9972 51.4752L29.814 51.518L29.6302 51.5589L29.446 51.5981L29.2613 51.6355L29.0761 51.6711L28.8905 51.7049L28.7045 51.7368L28.518 51.767L28.3312 51.7954L28.1439 51.8219L27.9564 51.8466L27.7685 51.8695L27.5802 51.8905L27.3917 51.9097L27.2029 51.9271L27.0139 51.9426L26.8246 51.9563L26.6351 51.9681L26.4453 51.9781L26.2554 51.9862L26.0654 51.9924L25.8751 51.9968L25.6848 51.9993L25.4943 52L25.3038 51.9988L25.1132 51.9957L24.9225 51.9908L24.7318 51.9839L24.5411 51.9752L24.3504 51.9647L24.1598 51.9522L23.9691 51.9379L23.7786 51.9217L23.5881 51.9036L23.3977 51.8837L23.2075 51.8619L23.0174 51.8382L22.8274 51.8126L22.6377 51.7851L22.4481 51.7558L22.2588 51.7246L22.0697 51.6916L21.8808 51.6566L21.6923 51.6198L21.504 51.5812L21.3161 51.5406L21.1284 51.4982L20.9412 51.454L20.7543 51.4079L20.5678 51.3599L20.3817 51.3101L20.1961 51.2585L20.0109 51.205L19.8261 51.1497L19.6419 51.0925L19.4582 51.0335L19.275 50.9727L19.0923 50.91L18.9102 50.8455L18.7287 50.7793L18.5478 50.7112L18.3675 50.6413L18.1879 50.5696L18.0089 50.4961L17.8306 50.4208L17.653 50.3438L17.4761 50.265L17.2999 50.1844L17.1245 50.102L16.9499 50.0179L16.7761 49.932L16.603 49.8444L16.4308 49.7551L16.2595 49.664L16.0889 49.5713L15.9193 49.4768L15.7506 49.3806L15.5828 49.2827L15.4159 49.1831L15.25 49.0819L15.085 48.9789L14.921 48.8744L14.7581 48.7681L14.5961 48.6603L14.4352 48.5507L14.2754 48.4396L14.1166 48.3269L13.9589 48.2125L13.8023 48.0966L13.6469 47.979L13.4926 47.8599L13.3394 47.7393L13.1874 47.617L13.0366 47.4933L12.887 47.368L12.7387 47.2412L12.5915 47.1129L12.4457 46.983L12.3011 46.8517L12.1578 46.719L12.0157 46.5847L11.875 46.4491L11.7357 46.3119L11.5977 46.1734L11.461 46.0335L11.3257 45.8921L11.1919 45.7494L11.0594 45.6053L10.9283 45.4598L10.7987 45.313L10.6706 45.1649L10.5439 45.0154L10.4187 44.8647L10.295 44.7126L10.1728 44.5593L10.0521 44.4047L9.93293 44.2489L9.81533 44.0918L9.69929 43.9335L9.58483 43.774L9.47195 43.6133L9.36068 43.4515L9.25102 43.2885L9.14299 43.1243L9.0366 42.9591L8.93185 42.7927L8.82877 42.6252L8.72737 42.4567L8.62765 42.287L8.52964 42.1164L8.43333 41.9447L8.33874 41.772L8.24589 41.5982L8.15477 41.4235L8.06542 41.2479L7.97782 41.0713L7.89201 40.8938L7.80798 40.7153L7.72574 40.536L7.64531 40.3557L7.56669 40.1747L7.4899 39.9927L7.41495 39.81L7.34183 39.6264L7.27057 39.442L7.20118 39.2569L7.13365 39.071L7.068 38.8844L7.00423 38.6971L6.94236 38.509L6.8824 38.3203L6.82434 38.1309L6.76821 37.9409L6.714 37.7502L6.66172 37.5589L6.61138 37.3671L6.56299 37.1747L6.51655 36.9817L6.47208 36.7882L6.42957 36.5941L6.38903 36.3996L6.35047 36.2046L6.31389 36.0092L6.2793 35.8133L6.24671 35.617L6.21611 35.4203L6.18752 35.2232L6.16094 35.0257L6.13638 34.8279L6.11383 34.6298L6.0933 34.4314L6.0748 34.2328L6.05833 34.0338L6.04389 33.8346L6.03149 33.6352L6.02113 33.4356L6.01281 33.2358L6.00653 33.0359L6.0023 32.8358L6.00013 32.6356L6 32.4353ZM25.3781 17.767L25.3325 13.9168L25.2892 13.921L25.0904 13.9421L24.8921 13.9652L24.6939 13.9903L24.4965 14.0171L24.2993 14.046L24.1023 14.0768L23.9059 14.1095L23.7097 14.1441L23.5145 14.1805L23.319 14.219L23.1249 14.2592L22.9305 14.3014L22.7371 14.3455L22.5439 14.3914L22.3516 14.4392L22.1598 14.4888L21.9685 14.5403L21.7778 14.5937L21.588 14.6489L21.3985 14.7059L21.21 14.7648L21.022 14.8255L20.835 14.8878L20.6483 14.9522L20.4626 15.0183L20.2778 15.0861L20.0935 15.1558L19.9102 15.2271L19.7279 15.3002L19.5461 15.3752L19.3652 15.4519L19.1852 15.5303L19.0062 15.6104L18.8281 15.6922L18.651 15.7756L18.4745 15.8609L18.2993 15.9478L18.125 16.0363L17.9517 16.1266L17.7794 16.2184L17.6083 16.3119L17.4379 16.4071L17.2686 16.5039L17.1008 16.6021L16.9335 16.7023L16.7678 16.8038L16.6032 16.9068L16.4394 17.0115L16.2769 17.1178L16.1156 17.2256L15.9558 17.3347L15.7966 17.4458L15.639 17.558L15.4826 17.6717L15.3273 17.787L15.1734 17.9037L15.0209 18.0218L14.8693 18.1416L14.7194 18.2625L14.5706 18.3849L14.4232 18.5087L14.2771 18.634L14.1325 18.7605L13.989 18.8885L13.8471 19.0177L13.7064 19.1484L13.5674 19.2802L13.4296 19.4134L13.2934 19.5478L13.1585 19.6835L13.025 19.8207L12.8932 19.9587L12.7629 20.098L12.6337 20.2389L12.5064 20.3807L12.3806 20.5235L12.2561 20.6678L12.1334 20.813L12.012 20.9595L11.8923 21.107L11.7742 21.2557L11.6576 21.4054L11.5427 21.5561L11.4293 21.7079L11.3175 21.8609L11.2075 22.0146L11.0989 22.1696L10.9921 22.3254L10.8869 22.4822L10.7833 22.64L10.6815 22.7987L10.5813 22.9582L10.4829 23.1187L10.3861 23.28L10.291 23.4423L10.1975 23.6055L10.106 23.7693L10.016 23.934L9.92778 24.0996L9.84134 24.2659L9.7566 24.433L9.67368 24.6007L9.59249 24.7692L9.51309 24.9384L9.43542 25.1084L9.35959 25.2789L9.28548 25.4502L9.21318 25.6221L9.14273 25.7945L9.07404 25.9676L9.00715 26.1413L8.9421 26.3155L8.87885 26.4903L8.81747 26.6655L8.75786 26.8414L8.7001 27.0177L8.64419 27.1945L8.59013 27.3716L8.53787 27.5494L8.4875 27.7274L8.43897 27.9059L8.39228 28.0847L8.34745 28.264L8.30449 28.4435L8.26339 28.6234L8.22415 28.8036L8.18678 28.9841L8.15128 29.1648L8.11764 29.3458L8.08588 29.527L8.05599 29.7085L8.02798 29.8901L8.00184 30.0719L7.97758 30.2539L7.95519 30.436L7.93468 30.6182L7.91605 30.8006L7.8993 30.983L7.88442 31.1654L7.87142 31.348L7.8603 31.5306L7.85105 31.7131L7.84368 31.8957L7.83818 32.0782L7.83456 32.2607L7.8328 32.4431L7.83292 32.6255L7.8349 32.8077L7.83875 32.9899L7.84446 33.1719L7.85203 33.3537L7.86147 33.5354L7.87275 33.7168L7.88589 33.8981L7.90088 34.0791L7.91772 34.2599L7.93639 34.4405L7.95691 34.6207L7.97926 34.8007L8.00344 34.9803L8.02945 35.1596L8.05729 35.3386L8.08693 35.5171L8.1184 35.6953L8.15167 35.8731L8.18674 36.0504L8.22361 36.2274L8.26227 36.4038L8.30272 36.5798L8.34495 36.7553L8.38895 36.9303L8.43473 37.1048L8.48225 37.2786L8.53155 37.452L8.58259 37.6248L8.63537 37.797L8.68989 37.9686L8.74612 38.1395L8.80408 38.3098L8.86376 38.4794L8.92514 38.6484L8.9882 38.8166L9.05299 38.9842L9.11942 39.151L9.18753 39.3171L9.25732 39.4824L9.32875 39.6469L9.40184 39.8107L9.47656 39.9737L9.55291 40.1358L9.63087 40.2971L9.71045 40.4575L9.79162 40.6171L9.87439 40.7758L9.95873 40.9336L10.0447 41.0905L10.1321 41.2464L10.2211 41.4014L10.3117 41.5555L10.4038 41.7085L10.4974 41.8606L10.5925 42.0117L10.6891 42.1617L10.7872 42.3108L10.8868 42.4588L10.9878 42.6057L11.0902 42.7516L11.1942 42.8964L11.2995 43.0401L11.4063 43.1827L11.5144 43.3241L11.624 43.4644L11.7348 43.6035L11.8471 43.7415L11.9608 43.8784L12.0757 44.014L12.192 44.1484L12.3096 44.2816L12.4285 44.4136L12.5487 44.5443L12.6701 44.6738L12.7928 44.802L12.9168 44.929L13.042 45.0547L13.1684 45.179L13.2961 45.3021L13.4248 45.4238L13.5548 45.5443L13.686 45.6634L13.8183 45.7811L13.9516 45.8974L14.0862 46.0124L14.2219 46.126L14.3585 46.2382L14.4964 46.3491L14.6352 46.4584L14.7751 46.5664L14.916 46.673L15.058 46.7781L15.2009 46.8817L15.3448 46.9839L15.4896 47.0846L15.6355 47.1839L15.7822 47.2816L15.93 47.3779L16.0785 47.4727L16.228 47.5659L16.3784 47.6577L16.5295 47.7479L16.6816 47.8366L16.8344 47.9237L16.9881 48.0093L17.1425 48.0933L17.2978 48.1758L17.4537 48.2567L17.6104 48.3361L17.7679 48.4138L17.9261 48.49L18.0849 48.5646L18.2444 48.6376L18.4045 48.7089L18.5654 48.7787L18.7268 48.8468L18.8889 48.9134L19.0515 48.9783L19.2147 49.0415L19.3785 49.1032L19.5427 49.1632L19.7075 49.2215L19.8729 49.2782L20.0387 49.3333L20.205 49.3867L20.3716 49.4384L20.5389 49.4885L20.7064 49.5369L20.8744 49.5836L21.0428 49.6287L21.2115 49.6721L21.3806 49.7138L21.5499 49.7538L21.7197 49.7922L21.8897 49.8288L22.0599 49.8638L22.2305 49.8971L22.4013 49.9287L22.5723 49.9586L22.7435 49.9868L22.9149 50.0133L23.0865 50.0381L23.2583 50.0612L23.4301 50.0827L23.6021 50.1024L23.7742 50.1204L23.9464 50.1368L24.1187 50.1514L24.291 50.1644L24.4633 50.1756L24.6357 50.1852L24.808 50.193L24.9803 50.1992L25.1526 50.2037L25.3249 50.2064L25.497 50.2075L25.6691 50.2069L25.8411 50.2046L26.0129 50.2007L26.1846 50.195L26.3562 50.1877L26.5276 50.1787L26.6987 50.168L26.8697 50.1557L27.0405 50.1417L27.211 50.126L27.3812 50.1086L27.5512 50.0896L27.7208 50.069L27.8902 50.0467L28.0592 50.0227L28.2279 49.9971L28.3962 49.9699L28.5642 49.941L28.7318 49.9105L28.8989 49.8784L29.0656 49.8447L29.2319 49.8093L29.3977 49.7724L29.563 49.7338L29.7279 49.6936L29.8922 49.6519L30.056 49.6085L30.2192 49.5636L30.382 49.5171L30.5441 49.469L30.7057 49.4194L30.8666 49.3683L31.027 49.3155L31.1867 49.2613L31.3456 49.2055L31.5041 49.1481L31.6618 49.0893L31.8188 49.0289L31.9751 48.9671L32.1306 48.9038L32.2854 48.8389L32.4395 48.7726L32.5928 48.7048L32.7452 48.6356L32.897 48.5649L33.0479 48.4927L33.1979 48.4192L33.3472 48.3441L33.4955 48.2677L33.643 48.1899L33.7897 48.1106L33.9353 48.03L34.0801 47.948L34.2239 47.8647L34.367 47.7799L34.5088 47.6939L34.65 47.6064L34.7899 47.5177L34.9289 47.4276L35.067 47.3362L35.2041 47.2434L35.3399 47.1496L35.4748 47.0543L35.6087 46.9578L35.7415 46.8601L35.8733 46.761L36.0038 46.6609L36.1335 46.5593L36.2618 46.4567L36.389 46.3529L36.5153 46.2478L36.6403 46.1415L36.764 46.0342L36.8867 45.9256L37.0081 45.816L37.1284 45.7052L37.2475 45.5933L37.3652 45.4804L37.4819 45.3662L37.5973 45.251L37.7114 45.1348L37.8243 45.0175L37.9358 44.8993L38.046 44.7801L38.1552 44.6595L38.2628 44.5383L38.3693 44.4159L38.4743 44.2927L38.5781 44.1684L38.6805 44.0433L38.7815 43.9172L38.8813 43.7901L38.9796 43.6623L39.0767 43.5334L39.1722 43.4038L39.2665 43.2732L39.3595 43.1417L39.4507 43.0097L39.5408 42.8766L39.6293 42.7429L39.7165 42.6082L39.8024 42.4727L39.8866 42.3367L39.9694 42.1999L40.0509 42.062L40.1307 41.9239L40.2092 41.7848L40.2863 41.645L40.3617 41.5048L40.4358 41.3636L40.5084 41.2218L40.5793 41.0799L40.6489 40.9368L40.717 40.7932L40.7835 40.6492L40.8485 40.5046L40.912 40.3594L40.9739 40.2138L41.0344 40.0674L41.0933 39.9206L41.1506 39.7737L41.2064 39.6257L41.2606 39.4777L41.3134 39.329L41.3646 39.18L41.4142 39.0305L41.4621 38.881L41.5087 38.7304L41.5535 38.58L41.5968 38.4291L41.6386 38.278L41.6788 38.1263L41.7173 37.9746L41.7544 37.8224L41.7898 37.6699L41.8237 37.5173L41.856 37.3643L41.8866 37.2114L41.9157 37.0578L41.9432 36.9046L41.9691 36.7508L41.9934 36.5969L42.0161 36.443L42.0373 36.2888L42.0568 36.1348L42.0748 35.9801L42.0911 35.826L42.1059 35.6714L42.119 35.5171L42.1306 35.3623L42.1406 35.2081L42.149 35.0534L42.1558 34.8986L42.161 34.7442L42.1647 34.5901L42.1667 34.4354L42.1672 34.281L42.1661 34.1268L42.1634 33.9727L42.1591 33.8186L42.1532 33.6651L42.1458 33.511L42.1368 33.3576L42.1262 33.2042L42.1141 33.0513L42.1004 32.8981L42.0852 32.7456L42.0684 32.593L42.05 32.4409L42.0301 32.2889L42.0087 32.1374L41.9856 31.9858L41.9611 31.8349L41.9351 31.6845L41.9075 31.534L41.8783 31.384L41.8477 31.2346L41.8155 31.0851L41.782 30.9367L41.7467 30.7881L41.7102 30.6405L41.6719 30.4927L41.6323 30.346L41.5912 30.1995L41.5486 30.0533L41.5046 29.908L41.4591 29.7632L41.412 29.6185L41.3637 29.4749L41.3137 29.3314L41.2625 29.1888L41.2097 29.0465L41.1556 28.9052L41.0999 28.7641L41.0429 28.6238L40.9846 28.4844L40.9249 28.3456L40.8635 28.207L40.8012 28.0697L40.7371 27.9325L40.6719 27.7966L40.6053 27.6612L40.5372 27.5263L40.468 27.3925L40.3973 27.2593L40.3252 27.1267L40.2522 26.9954L40.1775 26.8644L40.1017 26.7345L40.0244 26.6052L39.9462 26.4772L39.8663 26.3495L39.7855 26.223L39.7032 26.0971L39.6198 25.9723L39.5353 25.8486L39.4493 25.7254L39.3622 25.6033L39.274 25.4821L39.1845 25.362L39.0939 25.2426L39.0021 25.1244L38.9092 25.007L38.8151 24.8907L38.7199 24.7754L38.6235 24.661L38.526 24.5477L38.4275 24.4354L38.328 24.3242L38.2273 24.214L38.1253 24.1047L38.0228 23.9969L37.9186 23.8897L37.8139 23.784L37.708 23.6791L37.6012 23.5755L37.493 23.4727L37.3844 23.3715L37.2744 23.2711L37.1635 23.1719L37.052 23.074L36.9394 22.9772L36.8255 22.8813L36.711 22.7868L36.5957 22.6935L36.4794 22.6014L36.3622 22.5104L36.2444 22.4209L36.1253 22.3321L36.0058 22.245L35.8853 22.159L35.7639 22.0741L35.642 21.9906L35.5188 21.9081L35.3956 21.8273L35.271 21.7474L35.146 21.6689L35.02 21.5916L34.8935 21.5156L34.7663 21.441L34.6386 21.3678L34.5097 21.2955L34.3808 21.2249L34.2508 21.1554L34.1203 21.0873L33.9893 21.0206L33.8575 20.9551L33.7252 20.8909L33.5924 20.8282L33.4589 20.7667L33.3251 20.7067L33.1906 20.6479L33.0513 20.5887L32.9203 20.5346L32.784 20.4798L32.6479 20.4267L32.5107 20.3746L32.3735 20.3242L32.2357 20.275L32.0976 20.2273L31.9589 20.1808L31.8201 20.1359L31.6807 20.0923L31.541 20.0501L31.4012 20.0094L31.2608 19.97L31.1199 19.9319L30.9792 19.8954L30.8382 19.8602L30.6963 19.8264L30.5549 19.7941L30.4128 19.7631L30.2707 19.7336L30.1281 19.7054L29.9857 19.6787L29.8429 19.6534L29.7002 19.6296L29.5568 19.6071L29.4138 19.5861L29.2705 19.5665L29.127 19.5483L28.9835 19.5315L28.84 19.5161L28.6964 19.5022L28.5527 19.4897L28.4089 19.4786L28.265 19.4689L28.1215 19.4606L27.9779 19.4538L27.8338 19.4483L27.6905 19.4443L27.5469 19.4417L27.4034 19.4405L27.2597 19.4407L27.2309 19.441L27.2762 23.2632L27.3577 23.2628L27.4626 23.2634L27.5675 23.265L27.6725 23.2677L27.7776 23.2714L27.8827 23.2762L27.9878 23.282L28.093 23.2888L28.1982 23.2967L28.3034 23.3056L28.4086 23.3156L28.5137 23.3266L28.6189 23.3387L28.724 23.3518L28.829 23.3659L28.934 23.3812L29.0389 23.3974L29.1437 23.4147L29.2485 23.4331L29.3531 23.4525L29.4576 23.473L29.562 23.4945L29.6663 23.517L29.7704 23.5406L29.8743 23.5653L29.9781 23.591L30.0816 23.6177L30.185 23.6455L30.2882 23.6743L30.3912 23.7042L30.494 23.7351L30.5965 23.767L30.6987 23.8L30.8007 23.834L30.9025 23.8691L31.0039 23.9052L31.1051 23.9423L31.2059 23.9804L31.3065 24.0196L31.4067 24.0598L31.5066 24.101L31.6061 24.1433L31.7053 24.1865L31.8041 24.2308L31.9025 24.276L32.0005 24.3223L32.0982 24.3696L32.1954 24.4179L32.2922 24.4672L32.3886 24.5175L32.4845 24.5687L32.58 24.621L32.675 24.6742L32.7695 24.7284L32.8636 24.7836L32.9572 24.8398L33.0502 24.8969L33.1427 24.955L33.2347 25.0141L33.3262 25.0741L33.4171 25.135L33.5075 25.1969L33.5973 25.2598L33.6865 25.3235L33.7751 25.3882L33.8631 25.4539L33.9506 25.5204L34.0373 25.5879L34.1235 25.6563L34.209 25.7255L34.2939 25.7957L34.3781 25.8668L34.4617 25.9387L34.5446 26.0115L34.6268 26.0852L34.7083 26.1598L34.789 26.2352L34.8691 26.3115L34.9484 26.3886L35.027 26.4666L35.1049 26.5454L35.182 26.6251L35.2584 26.7055L35.3339 26.7868L35.4087 26.8689L35.4827 26.9518L35.5559 27.0354L35.6283 27.1199L35.6999 27.2051L35.7707 27.2911L35.8406 27.3779L35.9097 27.4654L35.9779 27.5537L36.0453 27.6427L36.1118 27.7325L36.1774 27.8229L36.2422 27.9141L36.306 28.006L36.369 28.0986L36.431 28.1919L36.4921 28.2858L36.5523 28.3805L36.6116 28.4758L36.67 28.5717L36.7274 28.6683L36.7838 28.7656L36.8393 28.8634L36.8938 28.9619L36.9473 29.061L36.9999 29.1607L37.0515 29.261L37.102 29.3619L37.1516 29.4634L37.2002 29.5654L37.2477 29.6679L37.2942 29.7711L37.3397 29.8747L37.3842 29.9789L37.4276 30.0836L37.47 30.1888L37.5113 30.2945L37.5515 30.4006L37.5907 30.5073L37.6288 30.6144L37.6659 30.722L37.7019 30.83L37.7367 30.9385L37.7705 31.0473L37.8032 31.1566L37.8348 31.2663L37.8653 31.3764L37.8946 31.4869L37.9229 31.5977L37.95 31.7089L37.976 31.8204L38.0009 31.9323L38.0246 32.0445L38.0472 32.157L38.0686 32.2698L38.0889 32.383L38.1081 32.4964L38.1261 32.61L38.1429 32.724L38.1586 32.8381L38.1731 32.9525L38.1865 33.0672L38.1986 33.1821L38.2096 33.2971L38.2195 33.4124L38.2281 33.5278L38.2356 33.6434L38.2418 33.7591L38.2469 33.875L38.2508 33.9911L38.2535 34.1072L38.255 34.2235L38.2553 34.3399L38.2544 34.4563L38.2523 34.5728L38.249 34.6894L38.2445 34.8061L38.2388 34.9227L38.2319 35.0394L38.2238 35.1562L38.2145 35.2729L38.2039 35.3896L38.1922 35.5063L38.1792 35.6229L38.1651 35.7396L38.1497 35.8561L38.1331 35.9726L38.1153 36.089L38.0963 36.2053L38.0761 36.3215L38.0546 36.4376L38.032 36.5536L38.0081 36.6694L37.983 36.7851L37.9568 36.9006L37.9293 37.0159L37.9006 37.131L37.8707 37.246L37.8396 37.3607L37.8073 37.4752L37.7738 37.5894L37.7391 37.7034L37.7032 37.8172L37.666 37.9307L37.6277 38.0438L37.5882 38.1567L37.5476 38.2693L37.5057 38.3815L37.4626 38.4934L37.4184 38.605L37.373 38.7162L37.3264 38.8271L37.2786 38.9375L37.2297 39.0476L37.1796 39.1573L37.1283 39.2665L37.0759 39.3753L37.0223 39.4837L36.9675 39.5916L36.9116 39.6991L36.8546 39.806L36.7964 39.9125L36.7371 40.0185L36.6767 40.124L36.6151 40.2289L36.5524 40.3334L36.4886 40.4372L36.4237 40.5406L36.3576 40.6433L36.2905 40.7455L36.2222 40.847L36.1529 40.948L36.0825 41.0484L36.011 41.1481L35.9384 41.2472L35.8648 41.3457L35.7901 41.4435L35.7143 41.5406L35.6375 41.637L35.5596 41.7328L35.4807 41.8278L35.4008 41.9222L35.3198 42.0158L35.2378 42.1087L35.1548 42.2008L35.0708 42.2922L34.9858 42.3828L34.8999 42.4727L34.8129 42.5617L34.725 42.65L34.636 42.7374L34.5462 42.8241L34.4553 42.9099L34.3636 42.9948L34.2709 43.079L34.1772 43.1622L34.0827 43.2446L33.9872 43.3262L33.8909 43.4068L33.7936 43.4866L33.6955 43.5654L33.5964 43.6433L33.4965 43.7203L33.3958 43.7964L33.2942 43.8715L33.1917 43.9457L33.0885 44.019L32.9844 44.0912L32.8795 44.1625L32.7737 44.2328L32.6672 44.3021L32.5599 44.3704L32.4519 44.4377L32.343 44.5039L32.2335 44.5692L32.1231 44.6334L32.0121 44.6965L31.9003 44.7586L31.7878 44.8197L31.6746 44.8797L31.5607 44.9386L31.4461 44.9964L31.3309 45.0531L31.215 45.1088L31.0984 45.1633L30.9812 45.2167L30.8634 45.269L30.745 45.3202L30.6259 45.3702L30.5063 45.4191L30.3861 45.4669L30.2653 45.5135L30.144 45.559L30.0221 45.6033L29.8997 45.6464L29.7767 45.6883L29.6533 45.7291L29.5293 45.7686L29.4049 45.807L29.28 45.8442L29.1546 45.8801L29.0288 45.9149L28.9025 45.9484L28.7758 45.9807L28.6487 46.0118L28.5212 46.0417L28.3932 46.0703L28.265 46.0977L28.1363 46.1238L28.0073 46.1487L27.878 46.1724L27.7483 46.1948L27.6183 46.2159L27.4881 46.2357L27.3575 46.2543L27.2266 46.2716L27.0955 46.2877L26.9642 46.3024L26.8326 46.3159L26.7008 46.3281L26.5688 46.339L26.4366 46.3486L26.3042 46.3569L26.1716 46.3639L26.0389 46.3696L25.906 46.374L25.773 46.3771L25.6399 46.3789L25.5066 46.3794L25.3733 46.3786L25.24 46.3764L25.1065 46.373L24.973 46.3682L24.8395 46.3621L24.7059 46.3547L24.5724 46.346L24.4388 46.336L24.3053 46.3246L24.1718 46.3119L24.0383 46.2979L23.9049 46.2826L23.7716 46.266L23.6383 46.248L23.5052 46.2287L23.3722 46.2081L23.2393 46.1862L23.1065 46.1629L22.9739 46.1384L22.8415 46.1125L22.7093 46.0852L22.5772 46.0567L22.4454 46.0269L22.3138 45.9957L22.1824 45.9632L22.0513 45.9294L21.9204 45.8943L21.7898 45.8579L21.6596 45.8202L21.5296 45.7812L21.3999 45.7409L21.2706 45.6992L21.1417 45.6563L21.013 45.6121L20.8848 45.5666L20.757 45.5198L20.6295 45.4717L20.5025 45.4223L20.3759 45.3717L20.2497 45.3197L20.124 45.2665L19.9988 45.2121L19.8741 45.1563L19.7498 45.0993L19.6261 45.0411L19.5029 44.9816L19.3802 44.9208L19.258 44.8588L19.1365 44.7956L19.0155 44.7311L18.8951 44.6654L18.7753 44.5985L18.6561 44.5303L18.5375 44.461L18.4196 44.3904L18.3023 44.3186L18.1857 44.2457L18.0698 44.1715L17.9546 44.0962L17.8401 44.0196L17.7263 43.9419L17.6132 43.8631L17.5009 43.7831L17.3893 43.7019L17.2785 43.6196L17.1684 43.5361L17.0592 43.4515L16.9508 43.3658L16.8432 43.2789L16.7364 43.191L16.6304 43.1019L16.5253 43.0118L16.4211 42.9205L16.3177 42.8282L16.2152 42.7348L16.1137 42.6404L16.013 42.5449L15.9132 42.4483L15.8144 42.3507L15.7166 42.2521L15.6197 42.1524L15.5237 42.0518L15.4287 41.9501L15.3348 41.8475L15.2418 41.7438L15.1498 41.6392L15.0589 41.5336L14.9689 41.4271L14.8801 41.3196L14.7922 41.2111L14.7055 41.1018L14.6198 40.9915L14.5352 40.8803L14.4517 40.7682L14.3692 40.6553L14.2879 40.5414L14.2078 40.4267L14.1287 40.3111L14.0508 40.1947L13.9741 40.0775L13.8985 39.9594L13.824 39.8405L13.7508 39.7208L13.6787 39.6003L13.6079 39.4791L13.5382 39.357L13.4698 39.2343L13.4025 39.1107L13.3366 38.9865L13.2718 38.8615L13.2083 38.7358L13.146 38.6094L13.085 38.4823L13.0253 38.3546L12.9669 38.2261L12.9097 38.0971L12.8539 37.9674L12.7993 37.837L12.746 37.7061L12.6941 37.5746L12.6435 37.4424L12.5942 37.3097L12.5463 37.1765L12.4996 37.0426L12.4544 36.9083L12.4105 36.7734L12.3679 36.638L12.3267 36.5022L12.2869 36.3658L12.2485 36.229L12.2114 36.0917L12.1758 35.9539L12.1415 35.8158L12.1087 35.6772L12.0772 35.5382L12.0472 35.3988L12.0185 35.2591L11.9913 35.119L11.9655 34.9785L11.9412 34.8377L11.9183 34.6966L11.8968 34.5552L11.8767 34.4135L11.8581 34.2715L11.841 34.1292L11.8253 33.9867L11.811 33.844L11.7982 33.701L11.7869 33.5578L11.7771 33.4145L11.7687 33.2709L11.7617 33.1272L11.7563 32.9834L11.7523 32.8394L11.7498 32.6953L11.7488 32.551L11.7493 32.4067L11.7512 32.2623L11.7546 32.1179L11.7596 31.9734L11.766 31.8288L11.7739 31.6843L11.7832 31.5397L11.7941 31.3952L11.8065 31.2506L11.8203 31.1062L11.8357 30.9617L11.8525 30.8174L11.8709 30.6731L11.8907 30.5289L11.912 30.3848L11.9349 30.2409L11.9591 30.0971L11.985 29.9535L12.0122 29.81L12.041 29.6667L12.0713 29.5237L12.103 29.3808L12.1363 29.2382L12.171 29.0958L12.2072 28.9537L12.2449 28.8119L12.284 28.6703L12.3247 28.5291L12.3668 28.3882L12.4104 28.2476L12.4555 28.1073L12.502 27.9675L12.5499 27.828L12.5994 27.6889L12.6503 27.5502L12.7027 27.4119L12.7564 27.2741L12.8117 27.1367L12.8684 26.9998L12.9265 26.8634L12.9861 26.7274L13.0471 26.592L13.1095 26.4571L13.1733 26.3227L13.2386 26.1889L13.3053 26.0557L13.3733 25.923L13.4428 25.791L13.5136 25.6595L13.5859 25.5287L13.6595 25.3985L13.7346 25.2689L13.811 25.1401L13.8887 25.0119L13.9678 24.8844L14.0483 24.7576L14.1301 24.6315L14.2133 24.5062L14.2977 24.3816L14.3836 24.2578L14.4707 24.1347L14.5591 24.0124L14.6489 23.891L14.7399 23.7703L14.8323 23.6505L14.9259 23.5315L15.0208 23.4134L15.1169 23.2962L15.2143 23.1798L15.313 23.0643L15.4129 22.9497L15.514 22.8361L15.6164 22.7234L15.7199 22.6116L15.8247 22.5008L15.9307 22.3909L16.0378 22.2821L16.1461 22.1742L16.2556 22.0673L16.3663 21.9615L16.4781 21.8566L16.591 21.7529L16.7051 21.6501L16.8203 21.5485L16.9365 21.4479L17.0539 21.3484L17.1724 21.25L17.2919 21.1527L17.4125 21.0565L17.5342 20.9615L17.6569 20.8676L17.7806 20.7749L17.9054 20.6833L18.0311 20.5929L18.1578 20.5037L18.2856 20.4157L18.4143 20.3289L18.5439 20.2434L18.6746 20.159L18.8061 20.0759L18.9386 19.994L19.072 19.9134L19.2063 19.8341L19.3414 19.756L19.4775 19.6792L19.6144 19.6038L19.7521 19.5296L19.8907 19.4567L20.0301 19.3852L20.1703 19.315L20.3113 19.2461L20.4531 19.1786L20.5957 19.1124L20.739 19.0476L20.8831 18.9842L21.0279 18.9222L21.1734 18.8615L21.3196 18.8022L21.4664 18.7444L21.614 18.688L21.7622 18.6329L21.9111 18.5794L22.0606 18.5272L22.2107 18.4765L22.3614 18.4272L22.5126 18.3794L22.6645 18.333L22.8169 18.2881L22.9699 18.2447L23.1233 18.2028L23.2773 18.1623L23.4318 18.1234L23.5868 18.0859L23.7422 18.05L23.8981 18.0155L24.0544 17.9826L24.2111 17.9511L24.3683 17.9213L24.5258 17.8929L24.6837 17.866L24.842 17.8408L25.0006 17.817L25.1595 17.7948L25.3187 17.7741L25.3781 17.767ZM25.4453 23.4361L25.3995 19.5719L25.269 19.5901L25.1287 19.6112L24.9883 19.6336L24.8488 19.6573L24.7091 19.6825L24.5701 19.7089L24.4314 19.7367L24.2932 19.7658L24.1553 19.7963L24.0177 19.8282L23.8805 19.8613L23.7439 19.8958L23.6074 19.9316L23.4763 19.9674L23.3366 20.0071L23.2017 20.0468L23.0674 20.0878L22.9338 20.13L22.8005 20.1736L22.6677 20.2185L22.5355 20.2646L22.404 20.3119L22.273 20.3606L22.1426 20.4104L22.0127 20.4616L21.8838 20.5139L21.7549 20.5676L21.627 20.6224L21.4997 20.6784L21.3733 20.7356L21.2472 20.7941L21.1218 20.8538L20.9975 20.9145L20.8734 20.9766L20.7506 21.0397L20.628 21.1042L20.5066 21.1695L20.3854 21.2364L20.2654 21.304L20.1462 21.3729L20.0276 21.443L19.9099 21.5141L19.7928 21.5865L19.6769 21.6597L19.5615 21.7342L19.4472 21.8097L19.3337 21.8862L19.221 21.9639L19.109 22.0427L18.9983 22.1222L18.8882 22.2031L18.779 22.2849L18.6708 22.3677L18.5636 22.4514L18.4571 22.5363L18.3518 22.622L18.2474 22.7087L18.1438 22.7966L18.0415 22.8851L17.9399 22.9748L17.8393 23.0654L17.7398 23.1568L17.6414 23.2491L17.5437 23.3425L17.4474 23.4365L17.352 23.5315L17.2575 23.6275L17.1642 23.7242L17.0719 23.8219L16.9807 23.9203L16.8906 24.0195L16.8015 24.1196L16.7134 24.2206L16.6268 24.3221L16.541 24.4246L16.4563 24.5279L16.3728 24.6318L16.2905 24.7364L16.2091 24.842L16.129 24.9481L16.05 25.055L15.9722 25.1626L15.8955 25.2709L15.8201 25.3797L15.7458 25.4893L15.6726 25.5996L15.6006 25.7105L15.5299 25.8219L15.4604 25.934L15.392 26.0469L15.3248 26.1601L15.2589 26.274L15.1941 26.3885L15.1307 26.5033L15.0684 26.6189L15.0072 26.7351L14.9475 26.8515L14.8889 26.9687L14.8316 27.0863L14.7755 27.2042L14.7207 27.3228L14.6671 27.4417L14.6148 27.5611L14.5637 27.6809L14.514 27.8011L14.4655 27.9217L14.4182 28.0428L14.3722 28.1642L14.3276 28.2859L14.2841 28.4081L14.2421 28.5304L14.2012 28.6532L14.1617 28.7763L14.1234 28.8997L14.0865 29.0233L14.0508 29.1472L14.0165 29.2713L13.9834 29.3958L13.9516 29.5204L13.9212 29.6453L13.8921 29.7704L13.8642 29.8956L13.8377 30.0211L13.8125 30.1467L13.7885 30.2724L13.7659 30.3984L13.7446 30.5244L13.7246 30.6506L13.7059 30.7767L13.6885 30.9031L13.6725 31.0295L13.6577 31.156L13.6443 31.2825L13.6321 31.4091L13.6213 31.5357L13.6118 31.6622L13.6036 31.7889L13.5966 31.9155L13.591 32.042L13.5867 32.1685L13.5837 32.2949L13.582 32.4213L13.5816 32.5477L13.5825 32.6739L13.5847 32.8L13.5882 32.926L13.5929 33.0518L13.599 33.1776L13.6063 33.3032L13.615 33.4285L13.6249 33.5538L13.636 33.6788L13.6485 33.8036L13.6622 33.9282L13.6772 34.0526L13.6935 34.1768L13.711 34.3006L13.7298 34.4243L13.7498 34.5475L13.7711 34.6706L13.7937 34.7934L13.8174 34.9157L13.8425 35.0379L13.8687 35.1596L13.8962 35.2811L13.9249 35.402L13.9548 35.5227L13.9859 35.643L14.0183 35.7629L14.0518 35.8823L14.0866 36.0014L14.1225 36.12L14.1597 36.2382L14.198 36.356L14.2375 36.4732L14.2782 36.5899L14.32 36.7062L14.363 36.822L14.4072 36.9373L14.4525 37.052L14.4989 37.1662L14.5465 37.2799L14.5952 37.393L14.6451 37.5055L14.696 37.6175L14.7481 37.7288L14.8013 37.8396L14.8555 37.9498L14.9109 38.0593L14.9673 38.1683L15.0248 38.2766L15.0834 38.3842L15.143 38.4912L15.2037 38.5975L15.2654 38.7031L15.3282 38.808L15.392 38.9123L15.4568 39.0158L15.5226 39.1186L15.5895 39.2208L15.6572 39.322L15.7261 39.4227L15.7958 39.5225L15.8666 39.6216L15.9383 39.7199L16.011 39.8174L16.0846 39.9141L16.1592 40.0101L16.2346 40.1052L16.311 40.1995L16.3883 40.293L16.4665 40.3857L16.5456 40.4774L16.6256 40.5685L16.7064 40.6585L16.7881 40.7478L16.8706 40.8361L16.954 40.9236L17.0382 41.0102L17.1233 41.0959L17.2091 41.1807L17.2958 41.2646L17.3833 41.3476L17.4714 41.4296L17.5605 41.5108L17.6502 41.5909L17.7407 41.6701L17.832 41.7484L17.924 41.8257L18.0167 41.9021L18.1101 41.9774L18.2042 42.0518L18.299 42.1252L18.3945 42.1977L18.4907 42.2691L18.5874 42.3395L18.6848 42.4089L18.7829 42.4773L18.8816 42.5447L18.981 42.6111L19.0809 42.6764L19.1814 42.7407L19.2825 42.804L19.3841 42.8662L19.4863 42.9274L19.5891 42.9875L19.6923 43.0465L19.7962 43.1045L19.9004 43.1614L20.0053 43.2173L20.1106 43.2721L20.2163 43.3257L20.3226 43.3784L20.4294 43.4299L20.5365 43.4804L20.644 43.5297L20.7521 43.578L20.8604 43.6251L20.9692 43.6711L21.0784 43.7161L21.188 43.7599L21.2978 43.8026L21.4081 43.8442L21.5187 43.8847L21.6296 43.9241L21.7408 43.9623L21.8524 43.9995L21.9642 44.0354L22.0763 44.0703L22.1887 44.104L22.3013 44.1366L22.4141 44.1681L22.5272 44.1984L22.6405 44.2277L22.754 44.2557L22.8677 44.2826L22.9816 44.3084L23.0957 44.3331L23.2099 44.3566L23.3242 44.3789L23.4388 44.4001L23.5533 44.4202L23.6681 44.4392L23.7829 44.4569L23.8978 44.4736L24.0128 44.4891L24.1278 44.5035L24.2429 44.5167L24.358 44.5288L24.4732 44.5397L24.5884 44.5495L24.7036 44.5581L24.8188 44.5657L24.9339 44.572L25.049 44.5773L25.1642 44.5814L25.2792 44.5844L25.3941 44.5862L25.509 44.5869L25.6238 44.5865L25.7385 44.5849L25.8531 44.5823L25.9675 44.5785L26.0819 44.5736L26.196 44.5675L26.31 44.5604L26.4238 44.5521L26.5375 44.5427L26.6509 44.5322L26.7642 44.5206L26.8773 44.5079L26.9901 44.4941L27.1027 44.4792L27.215 44.4633L27.3271 44.4462L27.4389 44.428L27.5503 44.4088L27.6616 44.3884L27.7725 44.367L27.8831 44.3446L27.9935 44.321L28.1033 44.2964L28.2129 44.2708L28.3221 44.244L28.431 44.2163L28.5395 44.1875L28.6476 44.1576L28.7553 44.1267L28.8626 44.0948L28.9694 44.0619L29.0758 44.0279L29.1819 43.9929L29.2874 43.9569L29.3925 43.9199L29.4971 43.8819L29.6012 43.8429L29.7048 43.8029L29.8079 43.7619L29.9106 43.7199L30.0127 43.677L30.1142 43.6331L30.2153 43.5883L30.3157 43.5425L30.4157 43.4957L30.5151 43.448L30.6137 43.3995L30.7121 43.3498L30.8096 43.2994L30.9067 43.2479L31.0029 43.1957L31.0987 43.1425L31.1939 43.0884L31.2883 43.0334L31.3822 42.9775L31.4754 42.9208L31.5678 42.8632L31.6598 42.8047L31.7508 42.7455L31.8413 42.6853L31.9312 42.6242L32.0202 42.5624L32.1084 42.4999L32.1962 42.4363L32.283 42.3722L32.3692 42.3071L32.4547 42.2412L32.5391 42.1747L32.6232 42.1072L32.7064 42.039L32.7885 41.9702L32.8703 41.9003L32.951 41.83L33.0309 41.759L33.1103 41.6869L33.1885 41.6145L33.2661 41.5412L33.3429 41.4672L33.4187 41.3926L33.4938 41.3172L33.5681 41.2412L33.6415 41.1645L33.7139 41.0872L33.7856 41.0092L33.8565 40.9306L33.9263 40.8515L33.9955 40.7715L34.0636 40.6911L34.1308 40.6101L34.1973 40.5283L34.2627 40.4463L34.3273 40.3634L34.391 40.2801L34.4538 40.1961L34.5156 40.1117L34.5764 40.0269L34.6365 39.9412L34.6955 39.8553L34.7536 39.7688L34.8109 39.6817L34.8669 39.5944L34.9223 39.5064L34.9766 39.4179L35.03 39.3291L35.0823 39.2398L35.1339 39.1499L35.1842 39.06L35.2338 38.9692L35.2823 38.8783L35.3297 38.787L35.3764 38.695L35.4218 38.6032L35.4665 38.5104L35.5099 38.4179L35.5527 38.3244L35.5941 38.2311L35.6348 38.137L35.6744 38.043L35.7129 37.9486L35.7505 37.8538L35.7871 37.7587L35.8225 37.6636L35.8572 37.5679L35.8906 37.4721L35.9231 37.3761L35.9546 37.2798L35.9851 37.1832L36.0146 37.0865L36.043 36.9897L36.0704 36.8925L36.0967 36.7953L36.1221 36.6978L36.1464 36.6002L36.1697 36.5026L36.192 36.4045L36.2132 36.3065L36.2335 36.2084L36.2526 36.1103L36.2708 36.012L36.2879 35.9133L36.304 35.815L36.3191 35.7164L36.3331 35.6177L36.3461 35.5192L36.3581 35.4205L36.3691 35.3215L36.379 35.2232L36.388 35.1241L36.3959 35.0254L36.4027 34.9269L36.4086 34.8281L36.4134 34.7295L36.4172 34.631L36.42 34.5322L36.4217 34.434L36.4225 34.3354L36.4222 34.2371L36.421 34.1388L36.4187 34.0409L36.4154 33.9428L36.4111 33.8449L36.4058 33.7474L36.3995 33.6496L36.3922 33.5521L36.384 33.4551L36.3747 33.3578L36.3644 33.2611L36.3531 33.1642L36.3409 33.0678L36.3277 32.9715L36.3135 32.8753L36.2983 32.7795L36.2822 32.684L36.2651 32.5887L36.247 32.4937L36.2279 32.3986L36.2079 32.3042L36.187 32.2101L36.1651 32.1161L36.1422 32.0223L36.1185 31.9293L36.0937 31.836L36.0681 31.7435L36.0415 31.6511L36.014 31.5593L35.9856 31.4676L35.9562 31.3763L35.926 31.2856L35.8949 31.1952L35.8627 31.1049L35.8299 31.0154L35.796 30.9261L35.7613 30.8374L35.7257 30.7489L35.6892 30.6608L35.6519 30.5735L35.6136 30.4863L35.5746 30.3998L35.5347 30.3138L35.4939 30.228L35.4522 30.1427L35.4099 30.0582L35.3665 29.9739L35.3225 29.8904L35.2776 29.8074L35.2318 29.7245L35.1854 29.6426L35.138 29.561L35.0899 29.4801L35.0409 29.3995L34.9914 29.3198L34.9408 29.2403L34.8897 29.1617L34.8377 29.0836L34.785 29.0061L34.7314 28.929L34.6772 28.8527L34.6224 28.7771L34.5666 28.7018L34.5103 28.6274L34.4531 28.5535L34.3955 28.4804L34.3369 28.4077L34.2777 28.3358L34.2178 28.2645L34.1573 28.1938L34.0962 28.124L34.0342 28.0546L33.9718 27.9861L33.9086 27.9181L33.845 27.8511L33.7804 27.7844L33.7155 27.7187L33.6497 27.6534L33.5835 27.5891L33.5168 27.5255L33.4494 27.4625L33.3813 27.4002L33.3127 27.3388L33.2436 27.2781L33.1737 27.2179L33.1038 27.1589L33.0329 27.1002L32.9616 27.0425L32.8898 26.9856L32.8174 26.9292L32.7446 26.8738L32.6715 26.8193L32.5975 26.7653L32.523 26.712L32.4485 26.6599L32.373 26.6082L32.2976 26.5577L32.2215 26.5077L32.1449 26.4585L32.0678 26.4101L31.9906 26.3627L31.9126 26.3159L31.8345 26.2701L31.7557 26.2249L31.677 26.1808L31.5976 26.1374L31.5178 26.0947L31.4377 26.0529L31.3574 26.0121L31.2766 25.9719L31.1954 25.9326L31.1141 25.8942L31.0326 25.8567L30.9502 25.8198L30.8682 25.784L30.7856 25.749L30.7026 25.7147L30.6195 25.6814L30.5363 25.649L30.4527 25.6174L30.3686 25.5865L30.2847 25.5567L30.2003 25.5276L30.1157 25.4994L30.0312 25.4721L29.9463 25.4457L29.8614 25.4201L29.7758 25.3953L29.6905 25.3715L29.605 25.3485L29.5193 25.3264L29.4335 25.3051L29.3473 25.2847L29.2613 25.2652L29.1753 25.2466L29.0889 25.2288L29.0023 25.2118L28.9162 25.1959L28.8295 25.1807L28.743 25.1664L28.6561 25.1529L28.5697 25.1404L28.4826 25.1286L28.3961 25.1179L28.3093 25.1079L28.2225 25.0988L28.1358 25.0906L28.0489 25.0832L27.9624 25.0767L27.8754 25.0711L27.7888 25.0663L27.7024 25.0624L27.6154 25.0593L27.5291 25.0571L27.4427 25.0558L27.3564 25.0553L27.2974 25.0555L27.3421 28.8309L27.3688 28.831L27.4184 28.8317L27.4681 28.8329L27.5179 28.8345L27.5677 28.8368L27.6176 28.8395L27.6675 28.8427L27.7175 28.8465L27.7675 28.8508L27.8176 28.8556L27.8677 28.8609L27.9178 28.8667L27.968 28.8731L28.0181 28.88L28.0683 28.8874L28.1185 28.8954L28.1687 28.9039L28.2188 28.9129L28.269 28.9225L28.3191 28.9325L28.3692 28.9432L28.4193 28.9543L28.4694 28.966L28.5193 28.9782L28.5693 28.9909L28.6192 29.0042L28.669 29.018L28.7188 29.0323L28.7685 29.0472L28.8181 29.0626L28.8676 29.0786L28.9171 29.0951L28.9664 29.1121L29.0157 29.1296L29.0648 29.1477L29.1138 29.1663L29.1627 29.1854L29.2115 29.2051L29.2601 29.2253L29.3086 29.246L29.357 29.2673L29.4052 29.2891L29.4533 29.3114L29.5012 29.3343L29.5489 29.3576L29.5965 29.3815L29.6438 29.406L29.691 29.4309L29.738 29.4564L29.7848 29.4824L29.8314 29.5089L29.8778 29.5359L29.9239 29.5634L29.9699 29.5915L30.0156 29.6201L30.0611 29.6492L30.1063 29.6787L30.1513 29.7088L30.1961 29.7395L30.2406 29.7706L30.2848 29.8022L30.3288 29.8343L30.3725 29.8669L30.4159 29.9L30.459 29.9336L30.5019 29.9677L30.5444 30.0023L30.5866 30.0373L30.6286 30.0729L30.6702 30.1089L30.7115 30.1454L30.7525 30.1824L30.7931 30.2199L30.8334 30.2578L30.8733 30.2962L30.913 30.3351L30.9522 30.3744L30.9911 30.4142L31.0297 30.4544L31.0678 30.4951L31.1056 30.5363L31.143 30.5779L31.1801 30.6199L31.2167 30.6624L31.2529 30.7053L31.2888 30.7486L31.3242 30.7924L31.3592 30.8366L31.3938 30.8812L31.428 30.9263L31.4618 30.9717L31.4951 31.0176L31.5279 31.0638L31.5604 31.1105L31.5924 31.1576L31.6239 31.2051L31.655 31.2529L31.6857 31.3012L31.7158 31.3498L31.7455 31.3988L31.7747 31.4482L31.8034 31.4979L31.8317 31.548L31.8594 31.5985L31.8867 31.6493L31.9135 31.7005L31.9397 31.752L31.9655 31.8038L31.9907 31.856L32.0154 31.9086L32.0396 31.9614L32.0633 32.0146L32.0865 32.0681L32.1091 32.1219L32.1312 32.176L32.1527 32.2304L32.1737 32.2851L32.1942 32.3401L32.2141 32.3954L32.2334 32.451L32.2522 32.5068L32.2704 32.5629L32.288 32.6193L32.3051 32.6759L32.3216 32.7328L32.3375 32.79L32.3529 32.8473L32.3677 32.9049L32.3818 32.9628L32.3954 33.0209L32.4084 33.0791L32.4208 33.1377L32.4326 33.1964L32.4437 33.2552L32.4543 33.3144L32.4643 33.3737L32.4737 33.4331L32.4824 33.4928L32.4905 33.5526L32.498 33.6126L32.5049 33.6728L32.5112 33.7331L32.5168 33.7935L32.5218 33.8541L32.5262 33.9149L32.5299 33.9757L32.533 34.0367L32.5354 34.0978L32.5373 34.159L32.5384 34.2203L32.539 34.2817L32.5388 34.3431L32.5381 34.4047L32.5367 34.4664L32.5346 34.5281L32.5319 34.5899L32.5285 34.6517L32.5245 34.7136L32.5198 34.7755L32.5144 34.8375L32.5084 34.8995L32.5018 34.9615L32.4944 35.0235L32.4864 35.0856L32.4778 35.1477L32.4685 35.2097L32.4585 35.2717L32.4478 35.3337L32.4365 35.3957L32.4245 35.4577L32.4119 35.5196L32.3985 35.5815L32.3845 35.6433L32.3699 35.7051L32.3545 35.7668L32.3385 35.8285L32.3219 35.89L32.3045 35.9515L32.2865 36.0128L32.2678 36.0741L32.2485 36.1353L32.2285 36.1963L32.2078 36.2573L32.1865 36.3181L32.1644 36.3787L32.1417 36.4393L32.1184 36.4996L32.0944 36.5599L32.0697 36.6199L32.0444 36.6798L32.0184 36.7395L31.9917 36.7991L31.9644 36.8584L31.9364 36.9175L31.9077 36.9765L31.8785 37.0352L31.8485 37.0937L31.8179 37.152L31.7866 37.21L31.7547 37.2678L31.7222 37.3254L31.689 37.3827L31.6551 37.4398L31.6207 37.4965L31.5855 37.5531L31.5498 37.6093L31.5134 37.6652L31.4763 37.7209L31.4387 37.7762L31.4004 37.8313L31.3615 37.886L31.3219 37.9404L31.2818 37.9945L31.241 38.0482L31.1996 38.1016L31.1576 38.1547L31.115 38.2074L31.0718 38.2597L31.028 38.3117L30.9836 38.3633L30.9385 38.4145L30.8929 38.4653L30.8467 38.5158L30.7999 38.5658L30.7526 38.6154L30.7046 38.6647L30.6561 38.7135L30.607 38.7618L30.5574 38.8098L30.5071 38.8573L30.4563 38.9043L30.405 38.9509L30.3531 38.9971L30.3007 39.0428L30.2477 39.088L30.1942 39.1327L30.1401 39.177L30.0855 39.2208L30.0304 39.264L29.9748 39.3068L29.9187 39.3491L29.862 39.3909L29.8049 39.4321L29.7472 39.4728L29.6891 39.5131L29.6304 39.5527L29.5713 39.5919L29.5117 39.6304L29.4516 39.6685L29.391 39.706L29.33 39.7429L29.2685 39.7792L29.2066 39.815L29.1442 39.8502L29.0813 39.8848L29.0181 39.9189L28.9544 39.9523L28.8903 39.9852L28.8257 40.0174L28.7608 40.0491L28.6954 40.0801L28.6296 40.1105L28.5635 40.1403L28.4969 40.1694L28.43 40.198L28.3627 40.2259L28.295 40.2531L28.2269 40.2797L28.1585 40.3057L28.0897 40.331L28.0206 40.3557L27.9512 40.3797L27.8814 40.403L27.8113 40.4257L27.7409 40.4476L27.6702 40.4689L27.5991 40.4896L27.5278 40.5095L27.4562 40.5288L27.3843 40.5473L27.3121 40.5652L27.2396 40.5823L27.1669 40.5988L27.0939 40.6145L27.0207 40.6296L26.9472 40.6439L26.8735 40.6575L26.7996 40.6704L26.7254 40.6826L26.6511 40.694L26.5765 40.7047L26.5018 40.7147L26.4268 40.724L26.3517 40.7325L26.2764 40.7402L26.2009 40.7473L26.1253 40.7535L26.0495 40.7591L25.9735 40.7638L25.8975 40.7679L25.8213 40.7712L25.745 40.7737L25.6685 40.7754L25.592 40.7764L25.5154 40.7767L25.4387 40.7762L25.3619 40.7749L25.285 40.7728L25.2081 40.77L25.1311 40.7664L25.054 40.762L24.9769 40.7569L24.8998 40.751L24.8227 40.7443L24.7455 40.7368L24.6684 40.7286L24.5912 40.7195L24.5141 40.7097L24.4369 40.6991L24.3598 40.6878L24.2827 40.6756L24.2057 40.6627L24.1287 40.649L24.0518 40.6345L23.9749 40.6193L23.8981 40.6032L23.8214 40.5864L23.7448 40.5687L23.6683 40.5503L23.5918 40.5312L23.5155 40.5112L23.4394 40.4904L23.3633 40.4689L23.2875 40.4466L23.2117 40.4235L23.1361 40.3996L23.0607 40.375L22.9854 40.3496L22.9104 40.3234L22.8355 40.2964L22.7608 40.2686L22.6864 40.2401L22.6121 40.2108L22.5381 40.1807L22.4643 40.1499L22.3908 40.1183L22.3175 40.0859L22.2444 40.0528L22.1717 40.0189L22.0991 39.9842L22.0269 39.9488L21.955 39.9126L21.8834 39.8757L21.8121 39.838L21.7411 39.7996L21.6704 39.7604L21.6001 39.7205L21.53 39.6798L21.4604 39.6384L21.3911 39.5963L21.3222 39.5534L21.2536 39.5098L21.1854 39.4655L21.1176 39.4204L21.0502 39.3746L20.9833 39.3281L20.9167 39.2809L20.8505 39.233L20.7848 39.1843L20.7195 39.135L20.6547 39.085L20.5903 39.0342L20.5264 38.9828L20.4629 38.9307L20.3999 38.8779L20.3374 38.8244L20.2754 38.7702L20.2139 38.7154L20.1529 38.6599L20.0924 38.6037L20.0324 38.5469L19.973 38.4894L19.914 38.4313L19.8557 38.3725L19.7979 38.3131L19.7406 38.253L19.6839 38.1924L19.6278 38.131L19.5723 38.0691L19.5173 38.0066L19.463 37.9434L19.4092 37.8797L19.356 37.8153L19.3035 37.7503L19.2516 37.6848L19.2003 37.6187L19.1496 37.552L19.0996 37.4847L19.0503 37.4169L19.0016 37.3485L18.9535 37.2795L18.9061 37.21L18.8594 37.14L18.8134 37.0694L18.7681 36.9983L18.7234 36.9267L18.6795 36.8546L18.6362 36.7819L18.5937 36.7088L18.5519 36.6351L18.5108 36.561L18.4704 36.4864L18.4308 36.4113L18.3919 36.3357L18.3537 36.2597L18.3163 36.1833L18.2797 36.1063L18.2438 36.029L18.2087 35.9512L18.1744 35.873L18.1408 35.7943L18.108 35.7153L18.076 35.6358L18.0448 35.556L18.0144 35.4757L17.9849 35.3951L17.9561 35.3141L17.9281 35.2328L17.9009 35.1511L17.8746 35.069L17.8491 34.9866L17.8244 34.9039L17.8005 34.8208L17.7775 34.7374L17.7554 34.6537L17.734 34.5697L17.7136 34.4854L17.694 34.4009L17.6752 34.316L17.6573 34.2309L17.6403 34.1455L17.6241 34.0599L17.6088 33.974L17.5944 33.8879L17.5809 33.8016L17.5682 33.715L17.5564 33.6283L17.5456 33.5413L17.5356 33.4542L17.5265 33.3668L17.5183 33.2793L17.511 33.1916L17.5046 33.1038L17.4991 33.0158L17.4945 32.9277L17.4908 32.8395L17.488 32.7511L17.4862 32.6626L17.4853 32.5741L17.4852 32.4854L17.4861 32.3966L17.488 32.3078L17.4907 32.2189L17.4944 32.1299L17.499 32.0409L17.5045 31.9519L17.5109 31.8628L17.5183 31.7737L17.5266 31.6846L17.5358 31.5955L17.546 31.5064L17.5571 31.4173L17.5691 31.3283L17.5821 31.2393L17.596 31.1503L17.6109 31.0614L17.6266 30.9725L17.6433 30.8837L17.661 30.795L17.6796 30.7064L17.6991 30.6179L17.7195 30.5295L17.7409 30.4413L17.7632 30.3531L17.7865 30.2651L17.8107 30.1773L17.8358 30.0896L17.8618 30.002L17.8888 29.9147L17.9167 29.8275L17.9455 29.7405L17.9753 29.6538L18.006 29.5672L18.0376 29.4809L18.0701 29.3948L18.1036 29.309L18.138 29.2234L18.1733 29.138L18.2095 29.053L18.2466 28.9682L18.2847 28.8837L18.3236 28.7995L18.3635 28.7156L18.4042 28.6321L18.4459 28.5488L18.4884 28.4659L18.5319 28.3834L18.5762 28.3012L18.6215 28.2194L18.6676 28.1379L18.7146 28.0568L18.7625 27.9762L18.8113 27.8959L18.8609 27.816L18.9115 27.7366L18.9629 27.6575L19.0151 27.5789L19.0682 27.5008L19.1222 27.4231L19.177 27.3459L19.2327 27.2692L19.2892 27.1929L19.3465 27.1171L19.4047 27.0419L19.4637 26.9671L19.5236 26.8929L19.5843 26.8191L19.6457 26.746L19.708 26.6733L19.7711 26.6012L19.835 26.5297L19.8997 26.4587L19.9652 26.3884L20.0315 26.3186L20.0986 26.2494L20.1664 26.1808L20.235 26.1128L20.3044 26.0454L20.3745 25.9787L20.4454 25.9126L20.517 25.8471L20.5893 25.7823L20.6624 25.7181L20.7363 25.6547L20.8108 25.5918L20.8861 25.5297L20.962 25.4683L21.0387 25.4075L21.116 25.3475L21.1941 25.2882L21.2728 25.2296L21.3522 25.1717L21.4323 25.1146L21.513 25.0582L21.5944 25.0025L21.6765 24.9476L21.7591 24.8935L21.8424 24.8402L21.9264 24.7876L22.0109 24.7358L22.0961 24.6848L22.1818 24.6346L22.2682 24.5852L22.3551 24.5366L22.4426 24.4888L22.5307 24.4419L22.6193 24.3958L22.7085 24.3505L22.7982 24.3061L22.8885 24.2625L22.9793 24.2198L23.0706 24.1779L23.1624 24.1369L23.2547 24.0968L23.3476 24.0575L23.4409 24.0191L23.5346 23.9817L23.6289 23.9451L23.7236 23.9094L23.8187 23.8746L23.9143 23.8408L24.0104 23.8078L24.1068 23.7758L24.2037 23.7447L24.3009 23.7145L24.3986 23.6853L24.4966 23.657L24.595 23.6297L24.6938 23.6033L24.7929 23.5778L24.8924 23.5533L24.9922 23.5298L25.0924 23.5073L25.1928 23.4857L25.2936 23.4651L25.3946 23.4455L25.4453 23.4361ZM26.6872 30.6964L25.5346 30.9718L25.4669 25.2623L25.4126 25.2745L25.3308 25.2938L25.2491 25.3139L25.168 25.3347L25.087 25.3563L25.0065 25.3787L24.926 25.402L24.8463 25.4258L24.7664 25.4506L24.6875 25.4759L24.6084 25.5022L24.5298 25.5292L24.4516 25.5569L24.3737 25.5853L24.2965 25.6144L24.2194 25.6444L24.1427 25.675L24.0665 25.7063L23.9904 25.7385L23.9153 25.7711L23.8402 25.8047L23.7658 25.8388L23.6915 25.8738L23.6179 25.9093L23.5445 25.9456L23.4719 25.9825L23.3996 26.0201L23.3278 26.0584L23.2565 26.0973L23.1856 26.1369L23.1152 26.1772L23.0456 26.218L22.9759 26.2597L22.9071 26.3018L22.8389 26.3446L22.7711 26.388L22.7037 26.4321L22.637 26.4768L22.5708 26.5221L22.5051 26.5679L22.4401 26.6143L22.3754 26.6614L22.3114 26.7091L22.248 26.7573L22.1851 26.8061L22.1229 26.8553L22.0613 26.9052L22.0001 26.9557L21.9395 27.0068L21.8797 27.0582L21.8204 27.1103L21.7617 27.1628L21.7036 27.2159L21.6461 27.2696L21.5893 27.3237L21.5331 27.3782L21.4774 27.4334L21.4225 27.4889L21.3682 27.545L21.3146 27.6014L21.2614 27.6586L21.2091 27.7159L21.1574 27.7738L21.1063 27.8322L21.056 27.8908L21.0062 27.9501L20.9573 28.0095L20.9088 28.0697L20.8612 28.13L20.8141 28.1909L20.7678 28.2522L20.7222 28.3137L20.6772 28.3756L20.633 28.4379L20.5894 28.5007L20.5465 28.5637L20.5044 28.6272L20.463 28.6908L20.4223 28.7548L20.3822 28.8193L20.343 28.8839L20.3043 28.9491L20.2665 29.0142L20.2293 29.0799L20.1928 29.1458L20.1572 29.2119L20.1222 29.2783L20.088 29.345L20.0544 29.4121L20.0217 29.4791L19.9896 29.5467L19.9583 29.6143L19.9278 29.6822L19.8979 29.7503L19.8688 29.8187L19.8405 29.8871L19.8129 29.9559L19.7861 30.0248L19.7599 30.0939L19.7346 30.163L19.71 30.2325L19.6861 30.3021L19.663 30.3718L19.6406 30.4416L19.619 30.5117L19.5981 30.5818L19.5781 30.6519L19.5587 30.7223L19.54 30.7928L19.5222 30.8633L19.5051 30.9339L19.4887 31.0046L19.4731 31.0754L19.4583 31.1463L19.4442 31.2171L19.4308 31.288L19.4182 31.3591L19.4064 31.43L19.3953 31.501L19.3849 31.5722L19.3753 31.6431L19.3665 31.7143L19.3584 31.7852L19.351 31.8563L19.3444 31.9275L19.3385 31.9984L19.3334 32.0694L19.329 32.1404L19.3253 32.2112L19.3224 32.282L19.3202 32.3527L19.3188 32.4235L19.318 32.4941L19.3181 32.5646L19.3188 32.635L19.3203 32.7054L19.3225 32.7756L19.3254 32.8457L19.329 32.9157L19.3334 32.9855L19.3385 33.0552L19.3443 33.1248L19.3508 33.1942L19.358 33.2636L19.3659 33.3325L19.3745 33.4016L19.3838 33.4702L19.3939 33.5389L19.4046 33.6072L19.416 33.6754L19.4281 33.7435L19.4409 33.8112L19.4544 33.8788L19.4685 33.946L19.4834 34.0132L19.4989 34.08L19.5151 34.1467L19.5319 34.2129L19.5495 34.2792L19.5676 34.3449L19.5864 34.4106L19.6059 34.4758L19.626 34.5409L19.6468 34.6056L19.6682 34.6699L19.6903 34.7342L19.713 34.798L19.7363 34.8614L19.7602 34.9247L19.7848 34.9876L19.81 35.0501L19.8358 35.1123L19.8621 35.1741L19.8892 35.2357L19.9168 35.2969L19.945 35.3577L19.9738 35.4181L20.0031 35.4781L20.0332 35.538L20.0636 35.5972L20.0947 35.6561L20.1264 35.7147L20.1587 35.7728L20.1915 35.8306L20.2248 35.888L20.2587 35.9448L20.2932 36.0014L20.3281 36.0575L20.3636 36.1131L20.3997 36.1684L20.4362 36.2232L20.4733 36.2777L20.5108 36.3314L20.5489 36.385L20.5875 36.438L20.6265 36.4905L20.6662 36.5427L20.7062 36.5943L20.7467 36.6454L20.7877 36.6961L20.8292 36.7464L20.871 36.796L20.9135 36.8453L20.9563 36.8941L20.9995 36.9423L21.0434 36.9901L21.0874 37.0372L21.132 37.0841L21.177 37.1303L21.2223 37.176L21.2682 37.2212L21.3144 37.2659L21.361 37.3101L21.408 37.3537L21.4554 37.3968L21.5032 37.4394L21.5513 37.4814L21.5998 37.5229L21.6486 37.5639L21.6978 37.6043L21.7474 37.6442L21.7974 37.6835L21.8475 37.7222L21.8981 37.7604L21.949 37.7981L22.0002 37.8352L22.0517 37.8717L22.1035 37.9077L22.1556 37.9431L22.208 37.9779L22.2606 38.0121L22.3135 38.0458L22.3669 38.079L22.4203 38.1114L22.474 38.1434L22.5281 38.1748L22.5822 38.2055L22.6366 38.2357L22.6915 38.2654L22.7464 38.2944L22.8015 38.3228L22.8568 38.3506L22.9125 38.3779L22.9681 38.4045L23.0242 38.4306L23.0803 38.4561L23.1365 38.4809L23.1931 38.5052L23.2498 38.5289L23.3065 38.552L23.3635 38.5745L23.4206 38.5963L23.478 38.6176L23.5352 38.6383L23.5929 38.6584L23.6504 38.6778L23.7081 38.6967L23.766 38.715L23.824 38.7327L23.882 38.7497L23.9401 38.7662L23.9984 38.782L24.0567 38.7973L24.115 38.8119L24.1734 38.826L24.2318 38.8394L24.2903 38.8522L24.3489 38.8645L24.4075 38.8761L24.4661 38.8872L24.5247 38.8976L24.5834 38.9075L24.6421 38.9167L24.7008 38.9254L24.7593 38.9334L24.818 38.9408L24.8766 38.9477L24.9353 38.954L24.9939 38.9596L25.0525 38.9647L25.111 38.9692L25.1694 38.9731L25.2279 38.9764L25.2862 38.9791L25.3444 38.9813L25.4028 38.9828L25.4608 38.9838L25.5188 38.9842L25.5768 38.984L25.6346 38.9833L25.6925 38.9819L25.7502 38.98L25.8076 38.9776L25.865 38.9745L25.9225 38.9709L25.9795 38.9667L26.0366 38.962L26.0934 38.9567L26.1502 38.9509L26.2068 38.9444L26.2631 38.9375L26.3195 38.93L26.3755 38.9219L26.4313 38.9133L26.4872 38.9042L26.5427 38.8945L26.598 38.8843L26.6532 38.8735L26.7082 38.8622L26.7628 38.8504L26.8172 38.8381L26.8716 38.8252L26.9257 38.8118L26.9795 38.798L27.0331 38.7836L27.0864 38.7687L27.1397 38.7532L27.1925 38.7373L27.2449 38.7209L27.2975 38.7039L27.3495 38.6865L27.4013 38.6687L27.4528 38.6503L27.504 38.6314L27.5551 38.612L27.6058 38.5922L27.6561 38.5719L27.7062 38.5512L27.756 38.5299L27.8056 38.5082L27.8546 38.4861L27.9036 38.4635L27.9521 38.4405L28.0002 38.417L28.0482 38.3931L28.0956 38.3688L28.1429 38.344L28.1898 38.3187L28.2363 38.2931L28.2824 38.2671L28.3283 38.2406L28.3738 38.2137L28.4188 38.1864L28.4635 38.1587L28.5079 38.1306L28.5519 38.1022L28.5956 38.0733L28.6388 38.0441L28.6817 38.0144L28.7242 37.9844L28.7662 37.9541L28.8079 37.9233L28.8492 37.8922L28.8901 37.8607L28.9306 37.8289L28.9708 37.7967L29.0104 37.7643L29.0497 37.7315L29.0885 37.6983L29.1269 37.6648L29.165 37.631L29.2026 37.5968L29.2398 37.5624L29.2764 37.5277L29.3128 37.4926L29.3487 37.4572L29.3842 37.4216L29.4192 37.3857L29.4537 37.3494L29.4878 37.313L29.5216 37.2761L29.5547 37.2392L29.5876 37.2018L29.6199 37.1642L29.6517 37.1265L29.6833 37.0883L29.7141 37.0501L29.7447 37.0115L29.7748 36.9728L29.8043 36.9338L29.8335 36.8945L29.8621 36.8552L29.8903 36.8154L29.9181 36.7755L29.9453 36.7356L29.9721 36.6952L29.9985 36.6548L30.0242 36.6142L30.0496 36.5734L30.0745 36.5324L30.0989 36.4912L30.1229 36.4499L30.1463 36.4084L30.1693 36.3668L30.1918 36.3249L30.2138 36.2831L30.2353 36.241L30.2564 36.1988L30.277 36.1565L30.2971 36.1139L30.3167 36.0714L30.3358 36.0287L30.3544 35.986L30.3726 35.943L30.3902 35.9001L30.4075 35.8568L30.4241 35.8139L30.4404 35.7703L30.456 35.7274L30.4713 35.6838L30.4861 35.6402L30.5003 35.5968L30.5141 35.5532L30.5274 35.5097L30.5403 35.4657L30.5525 35.4223L30.5645 35.3782L30.5758 35.3348L30.5867 35.2908L30.5971 35.2468L30.607 35.2031L30.6164 35.1595L30.6254 35.1153L30.6339 35.0716L30.6419 35.0275L30.6494 34.9839L30.6565 34.9401L30.6631 34.8962L30.6692 34.8523L30.6748 34.8085L30.68 34.7649L30.6847 34.7214L30.6889 34.6775L30.6927 34.634L30.696 34.5904L30.6988 34.5469L30.7012 34.5035L30.7031 34.4602L30.7045 34.4171L30.7055 34.3737L30.7061 34.3304L30.7062 34.2875L30.7058 34.2446L30.705 34.2018L30.7037 34.1591L30.702 34.1162L30.6998 34.0741L30.6972 34.0311L30.6942 33.9892L30.6907 33.9471L30.6868 33.9047L30.6824 33.8628L30.6777 33.8213L30.6724 33.7792L30.6668 33.738L30.6607 33.6965L30.6543 33.6556L30.6473 33.6143L30.64 33.5733L30.6323 33.5327L30.6242 33.4922L30.6156 33.4516L30.6066 33.4115L30.5973 33.3714L30.5875 33.3316L30.5774 33.2921L30.5667 33.2523L30.5559 33.2133L30.5445 33.1739L30.5328 33.1352L30.5207 33.0965L30.5082 33.0581L30.4953 33.0198L30.482 32.9816L30.4685 32.944L30.4545 32.9065L30.4401 32.8689L30.4254 32.8319L30.4103 32.7947L30.395 32.7584L30.3791 32.7217L30.3631 32.6856L30.3466 32.6498L30.3298 32.614L30.3127 32.5786L30.2952 32.5434L30.2774 32.5084L30.2593 32.4738L30.2408 32.4394L30.2221 32.4053L30.203 32.3714L30.1835 32.3378L30.1639 32.3045L30.1439 32.2715L30.1235 32.2386L30.1029 32.2063L30.082 32.1741L30.0608 32.1422L30.0393 32.1105L30.0176 32.0793L29.9955 32.0482L29.9732 32.0175L29.9506 31.9871L29.9277 31.957L29.9047 31.9272L29.8812 31.8976L29.8576 31.8685L29.8337 31.8396L29.8096 31.811L29.7852 31.7827L29.7607 31.7548L29.7358 31.7272L29.7107 31.6999L29.6854 31.6728L29.6599 31.6462L29.6341 31.6199L29.6081 31.5938L29.582 31.5682L29.5556 31.5429L29.5291 31.5179L29.5021 31.4931L29.4753 31.4688L29.4481 31.4447L29.4208 31.4211L29.3932 31.3977L29.3655 31.3748L29.3376 31.3521L29.3096 31.3298L29.2814 31.3078L29.253 31.2861L29.2245 31.2649L29.1958 31.2439L29.1669 31.2233L29.138 31.2031L29.1089 31.1831L29.0797 31.1636L29.0503 31.1444L29.0207 31.1255L28.9912 31.107L28.9613 31.0888L28.9315 31.071L28.9016 31.0536L28.8715 31.0365L28.8412 31.0197L28.811 31.0033L28.7807 30.9872L28.7502 30.9715L28.7198 30.9562L28.689 30.9411L28.6584 30.9265L28.6276 30.9123L28.5968 30.8983L28.5659 30.8847L28.5348 30.8714L28.504 30.8586L28.4728 30.8461L28.4416 30.8339L28.4105 30.8221L28.3793 30.8106L28.3481 30.7995L28.3168 30.7887L28.2855 30.7782L28.2543 30.7682L28.2229 30.7584L28.1915 30.749L28.1603 30.74L28.1287 30.7313L28.0975 30.723L28.0661 30.715L28.0347 30.7073L28.0033 30.7L27.972 30.693L27.9406 30.6864L27.9093 30.6801L27.8781 30.6741L27.8469 30.6685L27.8155 30.6632L27.7845 30.6583L27.7531 30.6537L27.7222 30.6494L27.691 30.6454L27.66 30.6418L27.6292 30.6385L27.5982 30.6356L27.5674 30.6329L27.5366 30.6306L27.5059 30.6286L27.4752 30.6269L27.4446 30.6256L27.4143 30.6246L27.3838 30.6238L27.3535 30.6234L27.3232 30.6233L27.2931 30.6236L27.263 30.6241L27.2331 30.6249L27.2032 30.6261L27.1736 30.6275L27.1438 30.6293L27.1144 30.6313L27.085 30.6336L27.0557 30.6363L27.0266 30.6392L26.9974 30.6424L26.9686 30.6459L26.9398 30.6497L26.9112 30.6538L26.8826 30.6582L26.8543 30.6628L26.826 30.6677L26.7981 30.6729L26.77 30.6784L26.7423 30.6841L26.7146 30.6901L26.6872 30.6964Z" fill="#6C7275"/>
<path d="M52.017 23.5454H56.5682L61.375 35.2727H61.5795L66.3863 23.5454H70.9375V41H67.3579V29.6392H67.2131L62.696 40.9148H60.2585L55.7415 29.5966H55.5966V41H52.017V23.5454Z" fill="#6C7275"/>
<path d="M77.6427 41.2471C76.8075 41.2471 76.0632 41.1023 75.4098 40.8125C74.7564 40.517 74.2393 40.0824 73.8586 39.5085C73.4836 38.929 73.2961 38.2074 73.2961 37.3437C73.2961 36.6165 73.4297 36.0057 73.6967 35.5113C73.9638 35.017 74.3274 34.6193 74.7876 34.3182C75.2479 34.017 75.7706 33.7898 76.3558 33.6363C76.9467 33.4829 77.566 33.375 78.2138 33.3125C78.9751 33.2329 79.5888 33.1591 80.0547 33.0909C80.5206 33.017 80.8587 32.9091 81.0689 32.767C81.2791 32.625 81.3842 32.4148 81.3842 32.1363V32.0852C81.3842 31.5454 81.2138 31.1278 80.8729 30.8324C80.5376 30.5369 80.0604 30.3892 79.441 30.3892C78.7876 30.3892 78.2677 30.5341 77.8814 30.8238C77.495 31.1079 77.2393 31.4659 77.1143 31.8977L73.7564 31.625C73.9268 30.8295 74.2621 30.142 74.7621 29.5625C75.2621 28.9773 75.9069 28.5284 76.6967 28.2159C77.4922 27.8977 78.4126 27.7386 79.4581 27.7386C80.1854 27.7386 80.8814 27.8238 81.5461 27.9943C82.2166 28.1648 82.8104 28.429 83.3274 28.7869C83.8501 29.1449 84.2621 29.6051 84.5632 30.1676C84.8643 30.7244 85.0149 31.392 85.0149 32.1704V41H81.5717V39.1846H81.4694C81.2592 39.5937 80.978 39.9545 80.6257 40.267C80.2734 40.5738 79.8501 40.8153 79.3558 40.9915C78.8615 41.1619 78.2905 41.2471 77.6427 41.2471ZM78.6825 38.7415C79.2166 38.7415 79.6882 38.6363 80.0973 38.4261C80.5064 38.2102 80.8274 37.9204 81.0604 37.5568C81.2933 37.1932 81.4098 36.7812 81.4098 36.321V34.9318C81.2961 35.0057 81.1399 35.0738 80.941 35.1363C80.7479 35.1932 80.5291 35.2471 80.2848 35.2983C80.0405 35.3437 79.7961 35.3863 79.5518 35.4261C79.3075 35.4602 79.0859 35.4915 78.8871 35.5199C78.4609 35.5824 78.0888 35.6818 77.7706 35.8182C77.4524 35.9545 77.2052 36.1392 77.0291 36.3721C76.853 36.5994 76.7649 36.8835 76.7649 37.2244C76.7649 37.7187 76.9439 38.0966 77.3018 38.3579C77.6655 38.6136 78.1257 38.7415 78.6825 38.7415Z" fill="#6C7275"/>
<path d="M94.7947 27.9091V30.6363H86.9112V27.9091H94.7947ZM88.701 24.7727H92.3317V36.9773C92.3317 37.3125 92.3828 37.5738 92.4851 37.7613C92.5873 37.9432 92.7294 38.071 92.9112 38.1449C93.0987 38.2187 93.3146 38.2557 93.5589 38.2557C93.7294 38.2557 93.8998 38.2415 94.0703 38.2131C94.2408 38.179 94.3714 38.1534 94.4623 38.1363L95.0334 40.8381C94.8515 40.8949 94.5959 40.9602 94.2663 41.0341C93.9368 41.1136 93.5362 41.1619 93.0646 41.179C92.1896 41.2131 91.4226 41.0966 90.7635 40.8295C90.1101 40.5625 89.6015 40.1477 89.2379 39.5852C88.8743 39.0227 88.6953 38.3125 88.701 37.4545V24.7727Z" fill="#6C7275"/>
<path d="M107.888 31.642L104.564 31.8466C104.507 31.5625 104.385 31.3068 104.197 31.0795C104.01 30.8466 103.763 30.6619 103.456 30.5256C103.155 30.3835 102.794 30.3125 102.374 30.3125C101.811 30.3125 101.337 30.4318 100.95 30.6704C100.564 30.9034 100.371 31.2159 100.371 31.6079C100.371 31.9204 100.496 32.1846 100.746 32.4006C100.996 32.6165 101.425 32.7898 102.033 32.9204L104.402 33.3977C105.675 33.6591 106.624 34.0795 107.249 34.6591C107.874 35.2386 108.186 36 108.186 36.9432C108.186 37.8011 107.933 38.554 107.428 39.2017C106.928 39.8494 106.24 40.3551 105.365 40.7187C104.496 41.0767 103.493 41.2557 102.357 41.2557C100.624 41.2557 99.2429 40.8949 98.2145 40.1733C97.1917 39.446 96.5923 38.4574 96.4162 37.2074L99.9872 37.0199C100.095 37.5483 100.357 37.9517 100.771 38.2301C101.186 38.5028 101.717 38.6392 102.365 38.6392C103.001 38.6392 103.513 38.517 103.899 38.2727C104.291 38.0227 104.49 37.7017 104.496 37.3096C104.49 36.9801 104.351 36.7102 104.078 36.5C103.805 36.2841 103.385 36.1193 102.817 36.0057L100.55 35.554C99.2713 35.2983 98.3196 34.8551 97.6946 34.2244C97.0753 33.5937 96.7656 32.7898 96.7656 31.8125C96.7656 30.9716 96.9929 30.2471 97.4474 29.6392C97.9077 29.0312 98.5525 28.5625 99.3821 28.2329C100.217 27.9034 101.195 27.7386 102.314 27.7386C103.967 27.7386 105.268 28.0881 106.217 28.7869C107.172 29.4858 107.729 30.4375 107.888 31.642Z" fill="#6C7275"/>
<path d="M118.867 35.4261V27.9091H122.498V41H119.012V38.6221H118.876C118.58 39.3892 118.089 40.0057 117.401 40.4716C116.719 40.9375 115.887 41.1704 114.904 41.1704C114.029 41.1704 113.259 40.9716 112.594 40.5738C111.93 40.1761 111.41 39.6108 111.035 38.8778C110.665 38.1449 110.478 37.267 110.472 36.2443V27.9091H114.103V35.5966C114.109 36.3693 114.316 36.9801 114.725 37.429C115.134 37.8778 115.683 38.1023 116.37 38.1023C116.808 38.1023 117.217 38.0028 117.597 37.804C117.978 37.5994 118.285 37.2983 118.518 36.9006C118.756 36.5028 118.873 36.0113 118.867 35.4261Z" fill="#6C7275"/>
<path d="M125.402 41V27.9091H128.922V30.1932H129.058C129.297 29.3807 129.697 28.767 130.26 28.3523C130.822 27.9318 131.47 27.7216 132.203 27.7216C132.385 27.7216 132.581 27.7329 132.791 27.7557C133.001 27.7784 133.186 27.8096 133.345 27.8494V31.071C133.175 31.0199 132.939 30.9744 132.638 30.9346C132.337 30.8949 132.061 30.875 131.811 30.875C131.277 30.875 130.8 30.9915 130.379 31.2244C129.964 31.4517 129.635 31.7699 129.391 32.179C129.152 32.5881 129.033 33.0596 129.033 33.5937V41H125.402Z" fill="#6C7275"/>
<path d="M135.222 41V27.9091H138.853V41H135.222ZM137.046 26.2216C136.506 26.2216 136.043 26.0426 135.657 25.6846C135.276 25.321 135.086 24.8863 135.086 24.3807C135.086 23.8807 135.276 23.4517 135.657 23.0937C136.043 22.7301 136.506 22.5483 137.046 22.5483C137.586 22.5483 138.046 22.7301 138.427 23.0937C138.813 23.4517 139.006 23.8807 139.006 24.3807C139.006 24.8863 138.813 25.321 138.427 25.6846C138.046 26.0426 137.586 26.2216 137.046 26.2216Z" fill="#6C7275"/>
</svg>
