<svg width="167" height="64" viewBox="0 0 167 64" fill="none" xmlns="http://www.w3.org/2000/svg">
<path fill-rule="evenodd" clip-rule="evenodd" d="M26.3914 12C37.6532 12 46.7827 21.1295 46.7827 32.3913C46.7827 43.6532 37.6532 52.7827 26.3914 52.7827C15.1295 52.7827 6 43.6532 6 32.3913C6 21.1295 15.1295 12 26.3914 12ZM46 32.3913C46 21.5618 37.2209 12.7826 26.3914 12.7826C25.5178 12.7826 24.6577 12.8397 23.8143 12.9505C24.3592 12.9028 24.9106 12.8785 25.4678 12.8785C35.816 12.8785 44.2049 21.2674 44.2049 31.6156C44.2049 41.9637 35.816 50.3526 25.4678 50.3526C15.6708 50.3526 7.62999 42.8337 6.80116 33.2516C7.25141 43.682 15.85 52 26.3914 52C37.2209 52 46 43.2209 46 32.3913ZM43.4222 31.6156C43.4222 21.6996 35.3838 13.6611 25.4678 13.6611C24.6627 13.6611 23.8699 13.7141 23.0928 13.8168C23.5713 13.7766 24.0554 13.756 24.5443 13.756C33.9789 13.756 41.6271 21.4043 41.6271 30.8388C41.6271 40.2734 33.9789 47.9216 24.5443 47.9216C15.6236 47.9216 8.30002 41.0839 7.52865 32.3637C7.92084 41.9327 15.8025 49.57 25.4678 49.57C35.3838 49.57 43.4222 41.5315 43.4222 31.6156ZM24.5443 14.5386C33.5466 14.5386 40.8445 21.8365 40.8445 30.8388C40.8445 39.8411 33.5466 47.1389 24.5443 47.1389C15.7506 47.1389 8.58317 40.1753 8.25582 31.4616C8.96257 39.3266 15.5719 45.4905 23.6209 45.4905C32.1412 45.4905 39.0484 38.5834 39.0484 30.063C39.0484 21.5426 32.1412 14.6355 23.6209 14.6355C23.1801 14.6355 22.7436 14.654 22.3122 14.6902C23.042 14.5903 23.7871 14.5386 24.5443 14.5386ZM38.2657 30.063C38.2657 21.9749 31.709 15.4181 23.6209 15.4181C22.9375 15.4181 22.265 15.4649 21.6066 15.5555C21.9661 15.5274 22.3295 15.513 22.6963 15.513C30.3031 15.513 36.4696 21.6795 36.4696 29.2863C36.4696 36.893 30.3031 43.0595 22.6963 43.0595C15.5366 43.0595 9.65291 37.5966 8.986 30.6117C9.27453 38.4456 15.7164 44.7079 23.6209 44.7079C31.709 44.7079 38.2657 38.1512 38.2657 30.063ZM22.6963 16.2956C29.8708 16.2956 35.6869 22.1118 35.6869 29.2863C35.6869 36.4608 29.8708 42.2769 22.6963 42.2769C15.6631 42.2769 9.93535 36.6877 9.71241 29.7087C10.3145 35.8389 15.4843 40.6285 21.7728 40.6285C28.466 40.6285 33.8918 35.2026 33.8918 28.5095C33.8918 21.8164 28.466 16.3905 21.7728 16.3905C21.4659 16.3905 21.1616 16.4019 20.8604 16.4244C21.4602 16.3395 22.0731 16.2956 22.6963 16.2956ZM33.1092 28.5095C33.1092 22.2486 28.0337 17.1732 21.7728 17.1732C21.2013 17.1732 20.6397 17.2155 20.0909 17.2971C20.3414 17.2791 20.5943 17.27 20.8494 17.27C26.6283 17.27 31.3131 21.9548 31.3131 27.7337C31.3131 33.5127 26.6283 38.1974 20.8494 38.1974C15.4341 38.1974 10.9797 34.0839 10.4404 28.8111C10.6003 34.9326 15.6128 39.8459 21.7728 39.8459C28.0337 39.8459 33.1092 34.7704 33.1092 28.5095ZM20.8494 18.0526C26.1961 18.0526 30.5304 22.387 30.5304 27.7337C30.5304 33.0805 26.1961 37.4148 20.8494 37.4148C15.5706 37.4148 11.2787 33.1901 11.1703 27.9374C11.658 32.3413 15.3919 35.7664 19.9259 35.7664C24.7912 35.7664 28.7353 31.8223 28.7353 26.957C28.7353 22.0917 24.7912 18.1475 19.9259 18.1475C19.7398 18.1475 19.5551 18.1533 19.3719 18.1647C19.8536 18.0909 20.347 18.0526 20.8494 18.0526ZM27.9527 26.957C27.9527 22.5239 24.359 18.9302 19.9259 18.9302C19.4807 18.9302 19.044 18.9664 18.6185 19.0361C18.7453 19.0294 18.8729 19.026 19.0014 19.026C22.953 19.026 26.1565 22.2295 26.1565 26.1812C26.1565 30.1329 22.953 33.3364 19.0014 33.3364C15.3474 33.3364 12.3332 30.5974 11.8997 27.0606C11.9552 31.446 15.5274 34.9838 19.9259 34.9838C24.359 34.9838 27.9527 31.3901 27.9527 26.957ZM19.0014 19.8086C22.5208 19.8086 25.3739 22.6617 25.3739 26.1812C25.3739 29.7007 22.5208 32.5537 19.0014 32.5537C15.4819 32.5537 12.6288 29.7007 12.6288 26.1812C12.6288 26.1728 12.6288 26.1643 12.6288 26.1559C12.9953 28.8379 15.2952 30.9044 18.0779 30.9044C21.1154 30.9044 23.5778 28.442 23.5778 25.4045C23.5778 22.3669 21.1154 19.9045 18.0779 19.9045C18.0092 19.9045 17.9408 19.9058 17.8727 19.9083C18.239 19.8428 18.6162 19.8086 19.0014 19.8086ZM22.7951 25.4045C22.7951 22.7992 20.6832 20.6872 18.0779 20.6872C15.4726 20.6872 13.3606 22.7992 13.3606 25.4045C13.3606 28.0097 15.4726 30.1217 18.0779 30.1217C20.6832 30.1217 22.7951 28.0097 22.7951 25.4045Z" fill="#6C7275"/>
<path d="M58.2242 41V23.5455H65.1106C66.4345 23.5455 67.5623 23.7983 68.4941 24.304C69.4259 24.804 70.1362 25.5 70.6248 26.3921C71.1191 27.2784 71.3663 28.3012 71.3663 29.4602C71.3663 30.6193 71.1163 31.6421 70.6163 32.5284C70.1163 33.4148 69.3919 34.1051 68.443 34.5994C67.4998 35.0938 66.3578 35.3409 65.0169 35.3409H60.6277V32.3835H64.4203C65.1305 32.3835 65.7157 32.2614 66.1759 32.0171C66.6419 31.7671 66.9884 31.4233 67.2157 30.9858C67.4487 30.5426 67.5652 30.0341 67.5652 29.4602C67.5652 28.8807 67.4487 28.375 67.2157 27.9432C66.9884 27.5057 66.6419 27.1676 66.1759 26.929C65.71 26.6847 65.1191 26.5625 64.4032 26.5625H61.9146V41H58.2242Z" fill="#6C7275"/>
<path d="M77.0765 41.2472C76.2413 41.2472 75.497 41.1023 74.8436 40.8125C74.1902 40.5171 73.6731 40.0824 73.2924 39.5085C72.9174 38.929 72.7299 38.2074 72.7299 37.3438C72.7299 36.6165 72.8634 36.0057 73.1305 35.5114C73.3975 35.0171 73.7612 34.6193 74.2214 34.3182C74.6816 34.0171 75.2044 33.7898 75.7896 33.6364C76.3805 33.483 76.9998 33.375 77.6475 33.3125C78.4089 33.233 79.0225 33.1591 79.4884 33.0909C79.9544 33.0171 80.2924 32.9091 80.5027 32.7671C80.7129 32.625 80.818 32.4148 80.818 32.1364V32.0852C80.818 31.5455 80.6475 31.1279 80.3066 30.8324C79.9714 30.5369 79.4941 30.3892 78.8748 30.3892C78.2214 30.3892 77.7015 30.5341 77.3152 30.8239C76.9288 31.108 76.6731 31.4659 76.5481 31.8977L73.1902 31.625C73.3606 30.8296 73.6958 30.1421 74.1958 29.5625C74.6958 28.9773 75.3407 28.5284 76.1305 28.2159C76.9259 27.8977 77.8464 27.7387 78.8919 27.7387C79.6191 27.7387 80.3152 27.8239 80.9799 27.9943C81.6504 28.1648 82.2441 28.429 82.7612 28.7869C83.2839 29.1449 83.6958 29.6051 83.997 30.1676C84.2981 30.7244 84.4487 31.3921 84.4487 32.1705V41H81.0055V39.1847H80.9032C80.693 39.5938 80.4117 39.9546 80.0595 40.2671C79.7072 40.5739 79.2839 40.8154 78.7896 40.9915C78.2953 41.1619 77.7242 41.2472 77.0765 41.2472ZM78.1163 38.7415C78.6504 38.7415 79.122 38.6364 79.5311 38.4262C79.9402 38.2102 80.2612 37.9205 80.4941 37.5568C80.7271 37.1932 80.8436 36.7813 80.8436 36.321V34.9318C80.7299 35.0057 80.5737 35.0739 80.3748 35.1364C80.1816 35.1932 79.9629 35.2472 79.7186 35.2983C79.4742 35.3438 79.2299 35.3864 78.9856 35.4262C78.7413 35.4602 78.5197 35.4915 78.3208 35.5199C77.8947 35.5824 77.5225 35.6818 77.2044 35.8182C76.8862 35.9546 76.639 36.1392 76.4629 36.3722C76.2867 36.5994 76.1987 36.8835 76.1987 37.2244C76.1987 37.7188 76.3777 38.0966 76.7356 38.358C77.0992 38.6137 77.5595 38.7415 78.1163 38.7415Z" fill="#6C7275"/>
<path d="M90.8961 23.5455V41H87.2654V23.5455H90.8961Z" fill="#6C7275"/>
<path d="M97.5375 41.2472C96.7022 41.2472 95.9579 41.1023 95.3045 40.8125C94.6511 40.5171 94.134 40.0824 93.7534 39.5085C93.3784 38.929 93.1909 38.2074 93.1909 37.3438C93.1909 36.6165 93.3244 36.0057 93.5914 35.5114C93.8585 35.0171 94.2221 34.6193 94.6823 34.3182C95.1426 34.0171 95.6653 33.7898 96.2505 33.6364C96.8414 33.483 97.4607 33.375 98.1085 33.3125C98.8698 33.233 99.4835 33.1591 99.9494 33.0909C100.415 33.0171 100.753 32.9091 100.964 32.7671C101.174 32.625 101.279 32.4148 101.279 32.1364V32.0852C101.279 31.5455 101.108 31.1279 100.768 30.8324C100.432 30.5369 99.9551 30.3892 99.3358 30.3892C98.6823 30.3892 98.1625 30.5341 97.7761 30.8239C97.3897 31.108 97.134 31.4659 97.009 31.8977L93.6511 31.625C93.8215 30.8296 94.1568 30.1421 94.6568 29.5625C95.1568 28.9773 95.8017 28.5284 96.5914 28.2159C97.3869 27.8977 98.3073 27.7387 99.3528 27.7387C100.08 27.7387 100.776 27.8239 101.441 27.9943C102.111 28.1648 102.705 28.429 103.222 28.7869C103.745 29.1449 104.157 29.6051 104.458 30.1676C104.759 30.7244 104.91 31.3921 104.91 32.1705V41H101.466V39.1847H101.364C101.154 39.5938 100.873 39.9546 100.52 40.2671C100.168 40.5739 99.7448 40.8154 99.2505 40.9915C98.7562 41.1619 98.1852 41.2472 97.5375 41.2472ZM98.5772 38.7415C99.1113 38.7415 99.5829 38.6364 99.992 38.4262C100.401 38.2102 100.722 37.9205 100.955 37.5568C101.188 37.1932 101.305 36.7813 101.305 36.321V34.9318C101.191 35.0057 101.035 35.0739 100.836 35.1364C100.643 35.1932 100.424 35.2472 100.18 35.2983C99.9352 35.3438 99.6909 35.3864 99.4465 35.4262C99.2022 35.4602 98.9806 35.4915 98.7818 35.5199C98.3556 35.5824 97.9835 35.6818 97.6653 35.8182C97.3471 35.9546 97.1 36.1392 96.9238 36.3722C96.7477 36.5994 96.6596 36.8835 96.6596 37.2244C96.6596 37.7188 96.8386 38.0966 97.1965 38.358C97.5602 38.6137 98.0204 38.7415 98.5772 38.7415Z" fill="#6C7275"/>
<path d="M112.55 41.2131C111.556 41.2131 110.655 40.9574 109.849 40.446C109.047 39.929 108.411 39.1705 107.939 38.1705C107.474 37.1648 107.241 35.9318 107.241 34.4716C107.241 32.9716 107.482 31.7244 107.965 30.7301C108.448 29.7301 109.09 28.983 109.891 28.4887C110.698 27.9887 111.581 27.7387 112.542 27.7387C113.275 27.7387 113.885 27.8637 114.374 28.1137C114.868 28.358 115.266 28.6648 115.567 29.0341C115.874 29.3977 116.107 29.7557 116.266 30.108H116.377V23.5455H119.999V41H116.42V38.9034H116.266C116.096 39.2671 115.854 39.6279 115.542 39.9858C115.235 40.3381 114.834 40.6307 114.34 40.8637C113.851 41.0966 113.255 41.2131 112.55 41.2131ZM113.701 38.3239C114.286 38.3239 114.78 38.1648 115.184 37.8466C115.593 37.5227 115.905 37.071 116.121 36.4915C116.343 35.9119 116.454 35.233 116.454 34.4546C116.454 33.6762 116.346 33 116.13 32.4262C115.914 31.8523 115.601 31.4091 115.192 31.0966C114.783 30.7841 114.286 30.6279 113.701 30.6279C113.104 30.6279 112.601 30.7898 112.192 31.1137C111.783 31.4375 111.474 31.8864 111.263 32.4602C111.053 33.0341 110.948 33.6989 110.948 34.4546C110.948 35.2159 111.053 35.8892 111.263 36.4744C111.479 37.054 111.789 37.5085 112.192 37.8381C112.601 38.1619 113.104 38.3239 113.701 38.3239Z" fill="#6C7275"/>
<path d="M128.899 41.2557C127.575 41.2557 126.43 40.9744 125.464 40.4119C124.504 39.8438 123.763 39.054 123.24 38.0426C122.717 37.0256 122.456 35.8466 122.456 34.5057C122.456 33.1534 122.717 31.9716 123.24 30.9602C123.763 29.9432 124.504 29.1534 125.464 28.5909C126.43 28.0227 127.575 27.7387 128.899 27.7387C130.223 27.7387 131.365 28.0227 132.325 28.5909C133.291 29.1534 134.035 29.9432 134.558 30.9602C135.081 31.9716 135.342 33.1534 135.342 34.5057C135.342 35.8466 135.081 37.0256 134.558 38.0426C134.035 39.054 133.291 39.8438 132.325 40.4119C131.365 40.9744 130.223 41.2557 128.899 41.2557ZM128.916 38.4432C129.518 38.4432 130.021 38.2727 130.425 37.9318C130.828 37.5852 131.132 37.1137 131.336 36.5171C131.547 35.9205 131.652 35.2415 131.652 34.4801C131.652 33.7188 131.547 33.0398 131.336 32.4432C131.132 31.8466 130.828 31.375 130.425 31.0284C130.021 30.6818 129.518 30.5085 128.916 30.5085C128.308 30.5085 127.797 30.6818 127.382 31.0284C126.973 31.375 126.663 31.8466 126.453 32.4432C126.248 33.0398 126.146 33.7188 126.146 34.4801C126.146 35.2415 126.248 35.9205 126.453 36.5171C126.663 37.1137 126.973 37.5852 127.382 37.9318C127.797 38.2727 128.308 38.4432 128.916 38.4432Z" fill="#6C7275"/>
<path d="M137.703 41V27.9091H141.223V30.1932H141.359C141.598 29.3807 141.998 28.7671 142.561 28.3523C143.123 27.9318 143.771 27.7216 144.504 27.7216C144.686 27.7216 144.882 27.733 145.092 27.7557C145.302 27.7784 145.487 27.8097 145.646 27.8494V31.071C145.476 31.0199 145.24 30.9744 144.939 30.9347C144.638 30.8949 144.362 30.875 144.112 30.875C143.578 30.875 143.101 30.9915 142.68 31.2244C142.265 31.4517 141.936 31.7699 141.692 32.179C141.453 32.5881 141.334 33.0597 141.334 33.5938V41H137.703Z" fill="#6C7275"/>
<path d="M150.881 41.2472C150.046 41.2472 149.302 41.1023 148.648 40.8125C147.995 40.5171 147.478 40.0824 147.097 39.5085C146.722 38.929 146.535 38.2074 146.535 37.3438C146.535 36.6165 146.668 36.0057 146.935 35.5114C147.202 35.0171 147.566 34.6193 148.026 34.3182C148.486 34.0171 149.009 33.7898 149.594 33.6364C150.185 33.483 150.804 33.375 151.452 33.3125C152.214 33.233 152.827 33.1591 153.293 33.0909C153.759 33.0171 154.097 32.9091 154.307 32.7671C154.518 32.625 154.623 32.4148 154.623 32.1364V32.0852C154.623 31.5455 154.452 31.1279 154.111 30.8324C153.776 30.5369 153.299 30.3892 152.679 30.3892C152.026 30.3892 151.506 30.5341 151.12 30.8239C150.733 31.108 150.478 31.4659 150.353 31.8977L146.995 31.625C147.165 30.8296 147.501 30.1421 148.001 29.5625C148.501 28.9773 149.145 28.5284 149.935 28.2159C150.731 27.8977 151.651 27.7387 152.697 27.7387C153.424 27.7387 154.12 27.8239 154.785 27.9943C155.455 28.1648 156.049 28.429 156.566 28.7869C157.089 29.1449 157.501 29.6051 157.802 30.1676C158.103 30.7244 158.253 31.3921 158.253 32.1705V41H154.81V39.1847H154.708C154.498 39.5938 154.216 39.9546 153.864 40.2671C153.512 40.5739 153.089 40.8154 152.594 40.9915C152.1 41.1619 151.529 41.2472 150.881 41.2472ZM151.921 38.7415C152.455 38.7415 152.927 38.6364 153.336 38.4262C153.745 38.2102 154.066 37.9205 154.299 37.5568C154.532 37.1932 154.648 36.7813 154.648 36.321V34.9318C154.535 35.0057 154.378 35.0739 154.179 35.1364C153.986 35.1932 153.768 35.2472 153.523 35.2983C153.279 35.3438 153.035 35.3864 152.79 35.4262C152.546 35.4602 152.324 35.4915 152.126 35.5199C151.699 35.5824 151.327 35.6818 151.009 35.8182C150.691 35.9546 150.444 36.1392 150.268 36.3722C150.091 36.5994 150.003 36.8835 150.003 37.2244C150.003 37.7188 150.182 38.0966 150.54 38.358C150.904 38.6137 151.364 38.7415 151.921 38.7415Z" fill="#6C7275"/>
</svg>
