<svg width="167" height="64" viewBox="0 0 167 64" fill="none" xmlns="http://www.w3.org/2000/svg">
<path d="M38.0089 26.1912C37.5 25.0275 36.8265 23.9431 36.0089 22.9712C34.8004 21.4915 33.2922 20.2846 31.5836 19.4298C29.875 18.575 28.0047 18.0918 26.0959 18.0118C24.1871 17.9319 22.283 18.2572 20.5089 18.9662C18.7349 19.6752 17.1311 20.7518 15.8031 22.1253C14.4751 23.4988 13.4531 25.1379 12.8042 26.9349C12.1554 28.7318 11.8944 30.6458 12.0386 32.5508C12.1827 34.4559 12.7287 36.3088 13.6405 37.9876C14.5523 39.6665 15.8094 41.1332 17.3289 42.2912C18.3039 43.0491 19.3813 43.6652 20.5289 44.1212C22.1379 44.7806 23.86 45.1202 25.5989 45.1212C29.1883 45.1133 32.6281 43.6825 35.1644 41.1425C37.7006 38.6025 39.1263 35.1606 39.1289 31.5712C39.1315 29.7197 38.7502 27.8878 38.0089 26.1912ZM25.5889 20.7612C27.1505 20.761 28.6932 21.1023 30.1089 21.7612C29.7637 21.9103 29.4007 22.0145 29.0289 22.0712C27.8055 22.2483 26.6722 22.8163 25.7981 23.6904C24.924 24.5644 24.356 25.6978 24.1789 26.9212C24.1012 27.6073 23.7891 28.2456 23.2954 28.7284C22.8017 29.2112 22.1566 29.5088 21.4689 29.5712C20.2455 29.7483 19.1122 30.3163 18.2381 31.1904C17.364 32.0645 16.796 33.1978 16.6189 34.4212C16.559 35.0736 16.2806 35.6867 15.8289 36.1612C15.0496 34.5145 14.6995 32.6973 14.8112 30.8789C14.9229 29.0605 15.4928 27.2999 16.4679 25.7609C17.4429 24.222 18.7915 22.9547 20.388 22.077C21.9845 21.1994 23.7771 20.7398 25.5989 20.7412L25.5889 20.7612ZM17.3189 38.5712C17.4389 38.4612 17.5589 38.3612 17.6789 38.2412C18.5686 37.3787 19.1396 36.2401 19.2989 35.0112C19.3635 34.3204 19.6719 33.6752 20.1689 33.1912C20.6472 32.6934 21.2909 32.3875 21.9789 32.3312C23.2023 32.1541 24.3356 31.5861 25.2097 30.712C26.0838 29.8379 26.6518 28.7046 26.8289 27.4812C26.8722 26.7587 27.1822 26.078 27.6989 25.5712C28.189 25.083 28.8388 24.7883 29.5289 24.7412C30.6528 24.5865 31.701 24.0869 32.5289 23.3112C33.4716 24.0933 34.2702 25.0341 34.8889 26.0912C34.8509 26.1425 34.8073 26.1895 34.7589 26.2312C34.2816 26.7334 33.6387 27.046 32.9489 27.1112C31.7242 27.2852 30.5892 27.8522 29.7145 28.7268C28.8399 29.6015 28.2729 30.7365 28.0989 31.9612C28.0284 32.6496 27.7221 33.2925 27.2319 33.7809C26.7416 34.2694 26.0976 34.5733 25.4089 34.6412C24.1819 34.8169 23.0444 35.3838 22.1652 36.2575C21.2861 37.1313 20.7122 38.2653 20.5289 39.4912C20.4751 39.9799 20.3072 40.4492 20.0389 40.8612C19.0129 40.252 18.094 39.4784 17.3189 38.5712ZM25.5889 42.4312C24.5742 42.4323 23.5643 42.2909 22.5889 42.0112C22.9226 41.3892 23.1395 40.7113 23.2289 40.0112C23.299 39.3243 23.6039 38.6826 24.0921 38.1944C24.5803 37.7062 25.222 37.4013 25.9089 37.3312C27.1341 37.1561 28.2697 36.589 29.1458 35.7147C30.0218 34.8405 30.5913 33.706 30.7689 32.4812C30.839 31.7943 31.1439 31.1526 31.6321 30.6644C32.1203 30.1762 32.762 29.8713 33.4489 29.8012C34.3709 29.6813 35.2497 29.338 36.0089 28.8012C36.4305 30.3991 36.4804 32.0723 36.1549 33.6925C35.8294 35.3127 35.137 36.8369 34.131 38.148C33.125 39.459 31.8321 40.5223 30.3513 41.2561C28.8706 41.9899 27.2415 42.3748 25.5889 42.3812V42.4312Z" fill="#6C7275"/>
<path d="M52.017 41V23.5454H58.9034C60.2216 23.5454 61.3466 23.7812 62.2784 24.2528C63.2159 24.7187 63.929 25.3807 64.4176 26.2386C64.9119 27.0909 65.1591 28.0937 65.1591 29.2471C65.1591 30.4062 64.9091 31.4034 64.4091 32.2386C63.9091 33.0682 63.1847 33.7045 62.2358 34.1477C61.2926 34.5909 60.1506 34.8125 58.8097 34.8125H54.1989V31.8466H58.2131C58.9176 31.8466 59.5028 31.75 59.9687 31.5568C60.4347 31.3636 60.7812 31.0738 61.0085 30.6875C61.2415 30.3011 61.358 29.821 61.358 29.2471C61.358 28.6676 61.2415 28.179 61.0085 27.7812C60.7812 27.3835 60.4318 27.0824 59.9602 26.8778C59.4943 26.6676 58.9062 26.5625 58.196 26.5625H55.7074V41H52.017ZM61.4432 33.0568L65.7812 41H61.7074L57.4631 33.0568H61.4432Z" fill="#6C7275"/>
<path d="M71.4318 41.2471C70.5966 41.2471 69.8523 41.1023 69.1989 40.8125C68.5455 40.517 68.0284 40.0824 67.6477 39.5085C67.2727 38.929 67.0852 38.2074 67.0852 37.3437C67.0852 36.6165 67.2187 36.0057 67.4858 35.5113C67.7528 35.017 68.1165 34.6193 68.5767 34.3182C69.0369 34.017 69.5597 33.7898 70.1449 33.6363C70.7358 33.4829 71.3551 33.375 72.0028 33.3125C72.7642 33.2329 73.3778 33.1591 73.8437 33.0909C74.3097 33.017 74.6477 32.9091 74.858 32.767C75.0682 32.625 75.1733 32.4148 75.1733 32.1363V32.0852C75.1733 31.5454 75.0028 31.1278 74.6619 30.8324C74.3267 30.5369 73.8494 30.3892 73.2301 30.3892C72.5767 30.3892 72.0568 30.5341 71.6705 30.8238C71.2841 31.1079 71.0284 31.4659 70.9034 31.8977L67.5455 31.625C67.7159 30.8295 68.0511 30.142 68.5511 29.5625C69.0511 28.9773 69.696 28.5284 70.4858 28.2159C71.2812 27.8977 72.2017 27.7386 73.2472 27.7386C73.9744 27.7386 74.6705 27.8238 75.3352 27.9943C76.0057 28.1648 76.5994 28.429 77.1165 28.7869C77.6392 29.1449 78.0511 29.6051 78.3523 30.1676C78.6534 30.7244 78.804 31.392 78.804 32.1704V41H75.3608V39.1846H75.2585C75.0483 39.5937 74.767 39.9545 74.4148 40.267C74.0625 40.5738 73.6392 40.8153 73.1449 40.9915C72.6506 41.1619 72.0795 41.2471 71.4318 41.2471ZM72.4716 38.7415C73.0057 38.7415 73.4773 38.6363 73.8864 38.4261C74.2955 38.2102 74.6165 37.9204 74.8494 37.5568C75.0824 37.1932 75.1989 36.7812 75.1989 36.321V34.9318C75.0852 35.0057 74.929 35.0738 74.7301 35.1363C74.5369 35.1932 74.3182 35.2471 74.0739 35.2983C73.8295 35.3437 73.5852 35.3863 73.3409 35.4261C73.0966 35.4602 72.875 35.4915 72.6761 35.5199C72.25 35.5824 71.8778 35.6818 71.5597 35.8182C71.2415 35.9545 70.9943 36.1392 70.8182 36.3721C70.642 36.5994 70.554 36.8835 70.554 37.2244C70.554 37.7187 70.733 38.0966 71.0909 38.3579C71.4545 38.6136 71.9148 38.7415 72.4716 38.7415Z" fill="#6C7275"/>
<path d="M86.4446 41.2131C85.4503 41.2131 84.5497 40.9574 83.7429 40.446C82.9418 39.929 82.3054 39.1704 81.8338 38.1704C81.3679 37.1648 81.1349 35.9318 81.1349 34.4716C81.1349 32.9716 81.3764 31.7244 81.8594 30.7301C82.3423 29.7301 82.9844 28.9829 83.7855 28.4886C84.5923 27.9886 85.4758 27.7386 86.4361 27.7386C87.169 27.7386 87.7798 27.8636 88.2685 28.1136C88.7628 28.3579 89.1605 28.6648 89.4616 29.0341C89.7685 29.3977 90.0014 29.7557 90.1605 30.1079H90.2713V23.5454H93.8935V41H90.3139V38.9034H90.1605C89.9901 39.267 89.7486 39.6278 89.4361 39.9858C89.1293 40.3381 88.7287 40.6307 88.2344 40.8636C87.7457 41.0966 87.1491 41.2131 86.4446 41.2131ZM87.5952 38.3238C88.1804 38.3238 88.6747 38.1648 89.0781 37.8466C89.4872 37.5227 89.7997 37.071 90.0156 36.4915C90.2372 35.9119 90.348 35.2329 90.348 34.4545C90.348 33.6761 90.2401 33 90.0241 32.4261C89.8082 31.8523 89.4957 31.4091 89.0866 31.0966C88.6776 30.7841 88.1804 30.6278 87.5952 30.6278C86.9986 30.6278 86.4957 30.7898 86.0866 31.1136C85.6776 31.4375 85.3679 31.8863 85.1577 32.4602C84.9474 33.0341 84.8423 33.6988 84.8423 34.4545C84.8423 35.2159 84.9474 35.8892 85.1577 36.4744C85.3736 37.054 85.6832 37.5085 86.0866 37.8381C86.4957 38.1619 86.9986 38.3238 87.5952 38.3238Z" fill="#6C7275"/>
<path d="M96.8786 41V27.9091H100.509V41H96.8786ZM98.7024 26.2216C98.1626 26.2216 97.6996 26.0426 97.3132 25.6846C96.9325 25.321 96.7422 24.8863 96.7422 24.3807C96.7422 23.8807 96.9325 23.4517 97.3132 23.0937C97.6996 22.7301 98.1626 22.5483 98.7024 22.5483C99.2422 22.5483 99.7024 22.7301 100.083 23.0937C100.469 23.4517 100.663 23.8807 100.663 24.3807C100.663 24.8863 100.469 25.321 100.083 25.6846C99.7024 26.0426 99.2422 26.2216 98.7024 26.2216Z" fill="#6C7275"/>
<path d="M109.332 41.2557C107.991 41.2557 106.838 40.9716 105.872 40.4034C104.912 39.8295 104.173 39.0341 103.656 38.017C103.145 37 102.889 35.8295 102.889 34.5057C102.889 33.1648 103.148 31.9886 103.665 30.9773C104.188 29.9602 104.929 29.1676 105.889 28.5994C106.849 28.0256 107.991 27.7386 109.315 27.7386C110.457 27.7386 111.457 27.946 112.315 28.3608C113.173 28.7756 113.852 29.3579 114.352 30.1079C114.852 30.8579 115.128 31.7386 115.179 32.75H111.753C111.656 32.0966 111.401 31.571 110.986 31.1733C110.577 30.7699 110.04 30.5682 109.375 30.5682C108.812 30.5682 108.321 30.7216 107.901 31.0284C107.486 31.3295 107.162 31.7699 106.929 32.3494C106.696 32.929 106.58 33.6307 106.58 34.4545C106.58 35.2898 106.693 36 106.92 36.5852C107.153 37.1704 107.48 37.6165 107.901 37.9233C108.321 38.2301 108.812 38.3835 109.375 38.3835C109.79 38.3835 110.162 38.2983 110.491 38.1278C110.827 37.9574 111.102 37.7102 111.318 37.3863C111.54 37.0568 111.685 36.6619 111.753 36.2017H115.179C115.122 37.2017 114.849 38.0824 114.361 38.8437C113.878 39.5994 113.21 40.1903 112.358 40.6165C111.506 41.0426 110.497 41.2557 109.332 41.2557Z" fill="#6C7275"/>
<path d="M121.237 41.2471C120.401 41.2471 119.657 41.1023 119.004 40.8125C118.35 40.517 117.833 40.0824 117.452 39.5085C117.077 38.929 116.89 38.2074 116.89 37.3437C116.89 36.6165 117.023 36.0057 117.29 35.5113C117.558 35.017 117.921 34.6193 118.381 34.3182C118.842 34.017 119.364 33.7898 119.95 33.6363C120.54 33.4829 121.16 33.375 121.808 33.3125C122.569 33.2329 123.183 33.1591 123.648 33.0909C124.114 33.017 124.452 32.9091 124.663 32.767C124.873 32.625 124.978 32.4148 124.978 32.1363V32.0852C124.978 31.5454 124.808 31.1278 124.467 30.8324C124.131 30.5369 123.654 30.3892 123.035 30.3892C122.381 30.3892 121.862 30.5341 121.475 30.8238C121.089 31.1079 120.833 31.4659 120.708 31.8977L117.35 31.625C117.521 30.8295 117.856 30.142 118.356 29.5625C118.856 28.9773 119.501 28.5284 120.29 28.2159C121.086 27.8977 122.006 27.7386 123.052 27.7386C123.779 27.7386 124.475 27.8238 125.14 27.9943C125.81 28.1648 126.404 28.429 126.921 28.7869C127.444 29.1449 127.856 29.6051 128.157 30.1676C128.458 30.7244 128.609 31.392 128.609 32.1704V41H125.165V39.1846H125.063C124.853 39.5937 124.572 39.9545 124.219 40.267C123.867 40.5738 123.444 40.8153 122.95 40.9915C122.455 41.1619 121.884 41.2471 121.237 41.2471ZM122.276 38.7415C122.81 38.7415 123.282 38.6363 123.691 38.4261C124.1 38.2102 124.421 37.9204 124.654 37.5568C124.887 37.1932 125.004 36.7812 125.004 36.321V34.9318C124.89 35.0057 124.734 35.0738 124.535 35.1363C124.342 35.1932 124.123 35.2471 123.879 35.2983C123.634 35.3437 123.39 35.3863 123.146 35.4261C122.901 35.4602 122.68 35.4915 122.481 35.5199C122.055 35.5824 121.683 35.6818 121.364 35.8182C121.046 35.9545 120.799 36.1392 120.623 36.3721C120.447 36.5994 120.359 36.8835 120.359 37.2244C120.359 37.7187 120.538 38.0966 120.896 38.3579C121.259 38.6136 121.719 38.7415 122.276 38.7415Z" fill="#6C7275"/>
<path d="M135.056 23.5454V41H131.425V23.5454H135.056Z" fill="#6C7275"/>
</svg>
