<svg width="167" height="64" viewBox="0 0 167 64" fill="none" xmlns="http://www.w3.org/2000/svg">
<path d="M24.4 22.65V18.4H11V47.6H24.4V43.35C21.655 43.35 19.0224 42.2595 17.0814 40.3185C15.1404 38.3775 14.05 35.745 14.05 33C14.05 30.255 15.1404 27.6224 17.0814 25.6814C19.0224 23.7404 21.655 22.65 24.4 22.65Z" fill="#6C7275"/>
<path d="M24.4 22.65V43.35C27.145 43.35 29.7776 42.2595 31.7186 40.3185C33.6596 38.3775 34.75 35.745 34.75 33C34.75 30.255 33.6596 27.6224 31.7186 25.6814C29.7776 23.7404 27.145 22.65 24.4 22.65Z" fill="#6C7275"/>
<path d="M49.446 41L44.4517 23.5454H48.483L51.3722 35.6733H51.5171L54.7046 23.5454H58.1563L61.3352 35.6988H61.4887L64.3779 23.5454H68.4091L63.4148 41H59.8182L56.4943 29.5881H56.358L53.0426 41H49.446Z" fill="#6C7275"/>
<path d="M74.8757 41.2557C73.5291 41.2557 72.37 40.9829 71.3985 40.4375C70.4325 39.8863 69.6882 39.1079 69.1655 38.1023C68.6428 37.0909 68.3814 35.8949 68.3814 34.5142C68.3814 33.1676 68.6428 31.9858 69.1655 30.9687C69.6882 29.9517 70.424 29.1591 71.3729 28.5909C72.3274 28.0227 73.4468 27.7386 74.7308 27.7386C75.5945 27.7386 76.3985 27.8778 77.1428 28.1562C77.8928 28.429 78.5462 28.8409 79.103 29.392C79.6655 29.9432 80.103 30.6363 80.4155 31.4716C80.728 32.3011 80.8843 33.2727 80.8843 34.3863V35.3835H69.8303V33.1335H77.4666C77.4666 32.6108 77.353 32.1477 77.1257 31.7443C76.8985 31.3409 76.5831 31.0256 76.1797 30.7983C75.782 30.5653 75.3189 30.4488 74.7905 30.4488C74.2394 30.4488 73.7507 30.5767 73.3246 30.8324C72.9041 31.0824 72.5746 31.4204 72.336 31.8466C72.0973 32.267 71.9752 32.7358 71.9695 33.2528V35.392C71.9695 36.0398 72.0888 36.5994 72.3274 37.071C72.5717 37.5426 72.9155 37.9062 73.3587 38.1619C73.8019 38.4176 74.3274 38.5454 74.9354 38.5454C75.3388 38.5454 75.7081 38.4886 76.0433 38.375C76.3786 38.2613 76.6655 38.0909 76.9041 37.8636C77.1428 37.6363 77.3246 37.3579 77.4496 37.0284L80.8075 37.25C80.6371 38.0568 80.2877 38.7613 79.7593 39.3636C79.2365 39.9602 78.5604 40.4261 77.7308 40.7613C76.907 41.0909 75.9553 41.2557 74.8757 41.2557Z" fill="#6C7275"/>
<path d="M83.2536 41V27.9091H86.8843V41H83.2536ZM85.0774 26.2216C84.5377 26.2216 84.0746 26.0426 83.6882 25.6846C83.3075 25.321 83.1172 24.8863 83.1172 24.3807C83.1172 23.8807 83.3075 23.4517 83.6882 23.0937C84.0746 22.7301 84.5377 22.5483 85.0774 22.5483C85.6172 22.5483 86.0774 22.7301 86.4581 23.0937C86.8445 23.4517 87.0377 23.8807 87.0377 24.3807C87.0377 24.8863 86.8445 25.321 86.4581 25.6846C86.0774 26.0426 85.6172 26.2216 85.0774 26.2216Z" fill="#6C7275"/>
<path d="M89.8608 41V23.5454H93.4915V30.1079H93.6023C93.7614 29.7557 93.9915 29.3977 94.2926 29.0341C94.5994 28.6648 94.9972 28.3579 95.4858 28.1136C95.9801 27.8636 96.5938 27.7386 97.3267 27.7386C98.2813 27.7386 99.1619 27.9886 99.9688 28.4886C100.776 28.9829 101.42 29.7301 101.903 30.7301C102.386 31.7244 102.628 32.9716 102.628 34.4716C102.628 35.9318 102.392 37.1648 101.92 38.1704C101.455 39.1704 100.818 39.929 100.011 40.446C99.2102 40.9574 98.3125 41.2131 97.3182 41.2131C96.6137 41.2131 96.0142 41.0966 95.5199 40.8636C95.0313 40.6307 94.6307 40.3381 94.3182 39.9858C94.0057 39.6278 93.7671 39.267 93.6023 38.9034H93.4404V41H89.8608ZM93.4148 34.4545C93.4148 35.2329 93.5227 35.9119 93.7387 36.4915C93.9546 37.071 94.2671 37.5227 94.6762 37.8466C95.0852 38.1648 95.5824 38.3238 96.1676 38.3238C96.7585 38.3238 97.2585 38.1619 97.6676 37.8381C98.0767 37.5085 98.3864 37.054 98.5966 36.4744C98.8125 35.8892 98.9205 35.2159 98.9205 34.4545C98.9205 33.6988 98.8154 33.0341 98.6051 32.4602C98.3949 31.8863 98.0852 31.4375 97.6762 31.1136C97.2671 30.7898 96.7642 30.6278 96.1676 30.6278C95.5767 30.6278 95.0767 30.7841 94.6676 31.0966C94.2642 31.4091 93.9546 31.8523 93.7387 32.4261C93.5227 33 93.4148 33.6761 93.4148 34.4545Z" fill="#6C7275"/>
<path d="M110.965 41.2557C109.641 41.2557 108.496 40.9744 107.531 40.4119C106.57 39.8437 105.829 39.054 105.306 38.0426C104.783 37.0256 104.522 35.8466 104.522 34.5057C104.522 33.1534 104.783 31.9716 105.306 30.9602C105.829 29.9432 106.57 29.1534 107.531 28.5909C108.496 28.0227 109.641 27.7386 110.965 27.7386C112.289 27.7386 113.431 28.0227 114.391 28.5909C115.357 29.1534 116.102 29.9432 116.624 30.9602C117.147 31.9716 117.408 33.1534 117.408 34.5057C117.408 35.8466 117.147 37.0256 116.624 38.0426C116.102 39.054 115.357 39.8437 114.391 40.4119C113.431 40.9744 112.289 41.2557 110.965 41.2557ZM110.982 38.4432C111.585 38.4432 112.087 38.2727 112.491 37.9318C112.894 37.5852 113.198 37.1136 113.403 36.517C113.613 35.9204 113.718 35.2415 113.718 34.4801C113.718 33.7187 113.613 33.0398 113.403 32.4432C113.198 31.8466 112.894 31.375 112.491 31.0284C112.087 30.6818 111.585 30.5085 110.982 30.5085C110.374 30.5085 109.863 30.6818 109.448 31.0284C109.039 31.375 108.729 31.8466 108.519 32.4432C108.315 33.0398 108.212 33.7187 108.212 34.4801C108.212 35.2415 108.315 35.9204 108.519 36.517C108.729 37.1136 109.039 37.5852 109.448 37.9318C109.863 38.2727 110.374 38.4432 110.982 38.4432Z" fill="#6C7275"/>
<path d="M118.212 26.5881V23.5454H132.547V26.5881H127.203V41H123.555V26.5881H118.212Z" fill="#6C7275"/>
<path d="M138.061 23.5454L142.28 36.8068H142.442L146.669 23.5454H150.76L144.743 41H139.987L133.962 23.5454H138.061Z" fill="#6C7275"/>
</svg>
