<svg width="167" height="64" viewBox="0 0 167 64" fill="none" xmlns="http://www.w3.org/2000/svg">
<path d="M71.017 41V23.5455H74.7074V30.7472H82.1988V23.5455H85.8807V41H82.1988V33.7898H74.7074V41H71.017Z" fill="#6C7275"/>
<path d="M94.7699 41.2557C93.446 41.2557 92.3011 40.9744 91.3352 40.4119C90.375 39.8438 89.6335 39.054 89.1108 38.0426C88.5881 37.0256 88.3267 35.8466 88.3267 34.5057C88.3267 33.1534 88.5881 31.9716 89.1108 30.9602C89.6335 29.9432 90.375 29.1534 91.3352 28.5909C92.3011 28.0227 93.446 27.7387 94.7699 27.7387C96.0937 27.7387 97.2358 28.0227 98.196 28.5909C99.1619 29.1534 99.9062 29.9432 100.429 30.9602C100.952 31.9716 101.213 33.1534 101.213 34.5057C101.213 35.8466 100.952 37.0256 100.429 38.0426C99.9062 39.054 99.1619 39.8438 98.196 40.4119C97.2358 40.9744 96.0937 41.2557 94.7699 41.2557ZM94.7869 38.4432C95.3892 38.4432 95.892 38.2727 96.2954 37.9318C96.6988 37.5852 97.0028 37.1137 97.2074 36.5171C97.4176 35.9205 97.5227 35.2415 97.5227 34.4801C97.5227 33.7188 97.4176 33.0398 97.2074 32.4432C97.0028 31.8466 96.6988 31.375 96.2954 31.0284C95.892 30.6818 95.3892 30.5085 94.7869 30.5085C94.179 30.5085 93.6676 30.6818 93.2528 31.0284C92.8437 31.375 92.5341 31.8466 92.3238 32.4432C92.1193 33.0398 92.017 33.7188 92.017 34.4801C92.017 35.2415 92.1193 35.9205 92.3238 36.5171C92.5341 37.1137 92.8437 37.5852 93.2528 37.9318C93.6676 38.2727 94.179 38.4432 94.7869 38.4432Z" fill="#6C7275"/>
<path d="M103.574 41V27.9091H107.034V30.2188H107.187C107.46 29.4517 107.915 28.8466 108.551 28.4034C109.187 27.9602 109.949 27.7387 110.835 27.7387C111.733 27.7387 112.497 27.9631 113.128 28.4119C113.759 28.8551 114.179 29.4574 114.389 30.2188H114.526C114.793 29.4688 115.276 28.8693 115.974 28.4205C116.679 27.9659 117.511 27.7387 118.472 27.7387C119.693 27.7387 120.685 28.1279 121.446 28.9063C122.213 29.679 122.597 30.7756 122.597 32.196V41H118.974V32.9119C118.974 32.1847 118.781 31.6392 118.395 31.2756C118.009 30.9119 117.526 30.7301 116.946 30.7301C116.287 30.7301 115.773 30.9404 115.403 31.3608C115.034 31.7756 114.849 32.3239 114.849 33.0057V41H111.33V32.8352C111.33 32.1932 111.145 31.6818 110.776 31.3012C110.412 30.9205 109.932 30.7301 109.335 30.7301C108.932 30.7301 108.568 30.8324 108.244 31.0369C107.926 31.2358 107.673 31.5171 107.486 31.8807C107.298 32.2387 107.205 32.6591 107.205 33.1421V41H103.574Z" fill="#6C7275"/>
<path d="M129.095 33.4318V41H125.464V27.9091H128.925V30.2188H129.078C129.368 29.4574 129.854 28.8551 130.535 28.4119C131.217 27.9631 132.044 27.7387 133.016 27.7387C133.925 27.7387 134.717 27.9375 135.393 28.3352C136.07 28.733 136.595 29.3012 136.97 30.0398C137.345 30.7727 137.533 31.6477 137.533 32.6648V41H133.902V33.3125C133.908 32.5114 133.703 31.8864 133.288 31.4375C132.874 30.983 132.303 30.7557 131.575 30.7557C131.087 30.7557 130.655 30.8608 130.28 31.071C129.91 31.2813 129.621 31.5881 129.41 31.9915C129.206 32.3892 129.101 32.8693 129.095 33.4318Z" fill="#6C7275"/>
<path d="M146.36 41.2557C145.013 41.2557 143.854 40.983 142.883 40.4375C141.917 39.8864 141.173 39.108 140.65 38.1023C140.127 37.0909 139.866 35.8949 139.866 34.5142C139.866 33.1676 140.127 31.9858 140.65 30.9688C141.173 29.9517 141.908 29.1591 142.857 28.5909C143.812 28.0227 144.931 27.7387 146.215 27.7387C147.079 27.7387 147.883 27.8779 148.627 28.1563C149.377 28.429 150.031 28.8409 150.587 29.3921C151.15 29.9432 151.587 30.6364 151.9 31.4716C152.212 32.3012 152.369 33.2727 152.369 34.3864V35.3835H141.315V33.1335H148.951C148.951 32.6108 148.837 32.1477 148.61 31.7443C148.383 31.3409 148.067 31.0256 147.664 30.7983C147.266 30.5654 146.803 30.4489 146.275 30.4489C145.724 30.4489 145.235 30.5767 144.809 30.8324C144.388 31.0824 144.059 31.4205 143.82 31.8466C143.582 32.2671 143.46 32.7358 143.454 33.2529V35.3921C143.454 36.0398 143.573 36.5994 143.812 37.071C144.056 37.5426 144.4 37.9063 144.843 38.1619C145.286 38.4176 145.812 38.5455 146.42 38.5455C146.823 38.5455 147.192 38.4887 147.528 38.375C147.863 38.2614 148.15 38.0909 148.388 37.8637C148.627 37.6364 148.809 37.358 148.934 37.0284L152.292 37.25C152.121 38.0568 151.772 38.7614 151.244 39.3637C150.721 39.9602 150.045 40.4262 149.215 40.7614C148.391 41.0909 147.44 41.2557 146.36 41.2557Z" fill="#6C7275"/>
<path d="M10.5 32C10.5 25.3726 15.8726 20 22.5 20C26.0931 20 29.3175 21.5792 31.5167 24.0815C35.507 28.5614 38.8066 28.3257 42.3107 25.0184C44.03 23.3951 46.3488 22.4 48.9 22.4C54.2019 22.4 58.5 26.6981 58.5 32C58.5 37.3019 54.2019 41.6 48.9 41.6C46.3488 41.6 44.03 40.6048 42.3107 38.9815C38.8074 35.6751 35.5086 35.4386 31.5196 39.9152C29.3203 42.4194 26.0947 44 22.5 44C15.8726 44 10.5 38.6274 10.5 32Z" fill="#6C7275"/>
</svg>
