<svg width="167" height="64" viewBox="0 0 167 64" fill="none" xmlns="http://www.w3.org/2000/svg">
<path d="M40.64 26.8805C40.6401 24.8902 40.0391 22.9462 38.9157 21.3033C37.7923 19.6604 36.1988 18.395 34.3441 17.673C32.4894 16.951 30.4598 16.806 28.5213 17.257C26.5827 17.708 24.8256 18.7339 23.48 20.2005H11V46.5405H37.35V34.2305C38.3842 33.3055 39.2118 32.1728 39.7787 30.9063C40.3456 29.6398 40.6391 28.2681 40.64 26.8805ZM35.57 26.8805C35.572 27.8342 35.291 28.7671 34.7626 29.5611C34.2341 30.355 33.4821 30.9744 32.6015 31.3407C31.7209 31.7071 30.7515 31.804 29.8158 31.6191C28.8802 31.4343 28.0204 30.976 27.3453 30.3023C26.6702 29.6286 26.2102 28.7698 26.0234 27.8345C25.8366 26.8993 25.9315 25.9296 26.296 25.0483C26.6605 24.1669 27.2783 23.4136 28.0711 22.8835C28.864 22.3534 29.7963 22.0705 30.75 22.0705C32.0266 22.0705 33.2511 22.5769 34.1547 23.4787C35.0584 24.3804 35.5674 25.6039 35.57 26.8805ZM32.28 41.4705H16.07V25.2705H21.01C20.9146 25.802 20.8644 26.3406 20.86 26.8805C20.8627 29.5027 21.9055 32.0167 23.7597 33.8709C25.6138 35.725 28.1278 36.7679 30.75 36.7705C31.2627 36.7678 31.7743 36.7243 32.28 36.6405V41.4705Z" fill="#6C7275"/>
<path d="M51.517 41V23.5455H55.2074V30.7472H62.6988V23.5455H66.3807V41H62.6988V33.7898H55.2074V41H51.517Z" fill="#6C7275"/>
<path d="M77.75 35.4262V27.9091H81.3807V41H77.8949V38.6222H77.7585C77.4631 39.3892 76.9716 40.0057 76.2841 40.4716C75.6023 40.9375 74.7699 41.1705 73.7869 41.1705C72.9119 41.1705 72.142 40.9716 71.4773 40.5739C70.8125 40.1762 70.2926 39.6108 69.9176 38.8779C69.5483 38.1449 69.3608 37.2671 69.3551 36.2443V27.9091H72.9858V35.5966C72.9915 36.3693 73.1988 36.9801 73.6079 37.429C74.017 37.8779 74.5653 38.1023 75.2528 38.1023C75.6903 38.1023 76.0994 38.0029 76.4801 37.804C76.8608 37.5994 77.1676 37.2983 77.4006 36.9006C77.6392 36.5029 77.7557 36.0114 77.75 35.4262Z" fill="#6C7275"/>
<path d="M84.2848 41V27.9091H87.8047V30.1932H87.941C88.1797 29.3807 88.5802 28.7671 89.1427 28.3523C89.7052 27.9318 90.353 27.7216 91.0859 27.7216C91.2677 27.7216 91.4638 27.733 91.674 27.7557C91.8842 27.7784 92.0689 27.8097 92.228 27.8494V31.071C92.0575 31.0199 91.8217 30.9744 91.5206 30.9347C91.2194 30.8949 90.9439 30.875 90.6939 30.875C90.1598 30.875 89.6825 30.9915 89.2621 31.2244C88.8473 31.4517 88.5177 31.7699 88.2734 32.179C88.0348 32.5881 87.9155 33.0597 87.9155 33.5938V41H84.2848Z" fill="#6C7275"/>
<path d="M97.4631 41.2472C96.6278 41.2472 95.8835 41.1023 95.2301 40.8125C94.5767 40.5171 94.0596 40.0824 93.679 39.5085C93.304 38.929 93.1165 38.2074 93.1165 37.3438C93.1165 36.6165 93.25 36.0057 93.517 35.5114C93.7841 35.0171 94.1477 34.6193 94.6079 34.3182C95.0682 34.0171 95.5909 33.7898 96.1761 33.6364C96.767 33.483 97.3863 33.375 98.0341 33.3125C98.7954 33.233 99.4091 33.1591 99.875 33.0909C100.341 33.0171 100.679 32.9091 100.889 32.7671C101.099 32.625 101.205 32.4148 101.205 32.1364V32.0852C101.205 31.5455 101.034 31.1279 100.693 30.8324C100.358 30.5369 99.8807 30.3892 99.2613 30.3892C98.6079 30.3892 98.0881 30.5341 97.7017 30.8239C97.3153 31.108 97.0596 31.4659 96.9346 31.8977L93.5767 31.625C93.7471 30.8296 94.0824 30.1421 94.5824 29.5625C95.0824 28.9773 95.7273 28.5284 96.517 28.2159C97.3125 27.8977 98.2329 27.7387 99.2784 27.7387C100.006 27.7387 100.702 27.8239 101.366 27.9943C102.037 28.1648 102.631 28.429 103.148 28.7869C103.67 29.1449 104.082 29.6051 104.384 30.1676C104.685 30.7244 104.835 31.3921 104.835 32.1705V41H101.392V39.1847H101.29C101.08 39.5938 100.798 39.9546 100.446 40.2671C100.094 40.5739 99.6704 40.8154 99.1761 40.9915C98.6818 41.1619 98.1108 41.2472 97.4631 41.2472ZM98.5028 38.7415C99.0369 38.7415 99.5085 38.6364 99.9176 38.4262C100.327 38.2102 100.648 37.9205 100.881 37.5568C101.114 37.1932 101.23 36.7813 101.23 36.321V34.9318C101.116 35.0057 100.96 35.0739 100.761 35.1364C100.568 35.1932 100.349 35.2472 100.105 35.2983C99.8608 35.3438 99.6165 35.3864 99.3721 35.4262C99.1278 35.4602 98.9062 35.4915 98.7074 35.5199C98.2812 35.5824 97.9091 35.6818 97.5909 35.8182C97.2727 35.9546 97.0256 36.1392 96.8494 36.3722C96.6733 36.5994 96.5852 36.8835 96.5852 37.2244C96.5852 37.7188 96.7642 38.0966 97.1221 38.358C97.4858 38.6137 97.946 38.7415 98.5028 38.7415Z" fill="#6C7275"/>
<path d="M111.283 33.4318V41H107.652V27.9091H111.112V30.2188H111.266C111.555 29.4574 112.041 28.8551 112.723 28.4119C113.405 27.9631 114.232 27.7387 115.203 27.7387C116.112 27.7387 116.905 27.9375 117.581 28.3352C118.257 28.733 118.783 29.3012 119.158 30.0398C119.533 30.7727 119.72 31.6477 119.72 32.6648V41H116.089V33.3125C116.095 32.5114 115.891 31.8864 115.476 31.4375C115.061 30.983 114.49 30.7557 113.763 30.7557C113.274 30.7557 112.842 30.8608 112.467 31.071C112.098 31.2813 111.808 31.5881 111.598 31.9915C111.393 32.3892 111.288 32.8693 111.283 33.4318Z" fill="#6C7275"/>
<path d="M120.884 26.5881V23.5455H135.219V26.5881H129.875V41H126.227V26.5881H120.884Z" fill="#6C7275"/>
<path d="M140.733 23.5455L144.952 36.8068H145.114L149.341 23.5455H153.432L147.415 41H142.659L136.634 23.5455H140.733Z" fill="#6C7275"/>
</svg>
