<svg width="40" height="40" viewBox="0 0 40 40" fill="none" xmlns="http://www.w3.org/2000/svg">
<circle cx="20" cy="20" r="20" fill="#FAD01D"/>
<path d="M12.504 21.112V19.704H15.448C16.8773 19.704 17.784 19.6827 18.168 19.64C18.5733 19.5973 18.8507 19.5013 19 19.352C19.1493 19.2027 19.2347 18.9467 19.256 18.584C19.2987 18.2213 19.32 17.2933 19.32 15.8V12.696H20.824V15.832C20.824 17.3253 20.8347 18.2533 20.856 18.616C20.8987 18.9787 20.9947 19.2347 21.144 19.384C21.2933 19.5333 21.5493 19.6293 21.912 19.672C22.2747 19.6933 23.192 19.704 24.664 19.704H27.992V21.112H24.664C23.2347 21.112 22.328 21.1333 21.944 21.176C21.56 21.2187 21.2933 21.3147 21.144 21.464C20.9947 21.6133 20.8987 21.8693 20.856 22.232C20.8347 22.5947 20.824 23.5227 20.824 25.016V28.12H19.32V25.016C19.32 23.5227 19.2987 22.5947 19.256 22.232C19.2347 21.8693 19.1493 21.6133 19 21.464C18.8507 21.3147 18.5733 21.2187 18.168 21.176C17.784 21.1333 16.8773 21.112 15.448 21.112H12.504Z" fill="black"/>
</svg>
