<svg width="24" height="24" viewBox="0 0 24 24" fill="none" xmlns="http://www.w3.org/2000/svg">
<g clip-path="url(#clip0_53_2207)">
<path fill-rule="evenodd" clip-rule="evenodd" d="M0 0H24V24H0V0ZM19 9V15.0746C19 15.5657 18.7954 16.0383 18.4279 16.3956C18.0604 16.7529 17.5579 16.968 17.0232 16.9968L16.9 17H7.1C6.56435 17 6.04894 16.8124 5.65922 16.4755C5.2695 16.1386 5.03492 15.6778 5.0035 15.1876L5 15.0746V9L11.6115 13.0414L11.6927 13.0838C11.7884 13.1266 11.8935 13.1489 12 13.1489C12.1065 13.1489 12.2116 13.1266 12.3073 13.0838L12.3885 13.0414L19 9ZM19 7.9151C18.6132 7.36553 17.9194 7 17.1282 7H6.87179L6.72454 7.00449C6.37497 7.02492 6.03605 7.11823 5.73605 7.27663C5.43605 7.43504 5.18368 7.65395 5 7.9151L12 12L19 7.9151Z" fill="#141718"/>
</g>
<defs>
<clipPath id="clip0_53_2207">
<rect width="24" height="24" rx="12" fill="white"/>
</clipPath>
</defs>
</svg>
