<svg width="29" height="30" viewBox="0 0 29 30" fill="none" xmlns="http://www.w3.org/2000/svg">
<path d="M28.3865 19.3C28.7865 19.5 28.8865 19.8 28.8865 20.2C28.8865 20.7 28.5865 21.4 27.8865 22.5C27.2865 23.6 26.7865 24.2 26.3865 24.5C25.9865 24.7 25.6865 24.7 25.2865 24.5L16.6865 18.3L17.8865 28.8C17.9865 29.2 17.7865 29.5 17.3865 29.7C16.9865 29.9 16.0865 30 14.8865 30C13.6865 30 12.7865 29.9 12.3865 29.7C11.9865 29.5 11.7865 29.2 11.8865 28.8L12.9865 18.3L4.48654 24.5C4.18654 24.7 3.78654 24.7 3.38654 24.5C2.98654 24.3 2.48654 23.6 1.88654 22.5C1.28654 21.5 0.986543 20.7 0.986543 20.2C0.986543 19.7 1.18654 19.4 1.48654 19.3L11.1865 15L1.48654 10.7C1.08654 10.5 0.886543 10.2 0.986543 9.7C0.986543 9.2 1.28654 8.5 1.88654 7.4C2.48654 6.4 2.98654 5.7 3.38654 5.5C3.78654 5.3 4.18654 5.3 4.48654 5.5L12.9865 11.7L11.8865 1.3C11.7865 0.899999 11.9865 0.599999 12.3865 0.299999C12.7865 -7.7486e-07 13.6865 0 14.8865 0C16.0865 0 16.9865 0.0999992 17.3865 0.299999C17.7865 0.499999 17.9865 0.799999 17.8865 1.3L16.7865 11.8L25.3865 5.6C25.6865 5.4 26.0865 5.4 26.4865 5.6C26.8865 5.8 27.3865 6.5 27.9865 7.6C28.5865 8.6 28.8865 9.4 28.9865 9.8C28.9865 10.3 28.8865 10.6 28.4865 10.8L18.6865 15L28.3865 19.3Z" fill="#141718"/>
</svg>
