<svg width="295" height="201" viewBox="0 0 295 201" fill="none" xmlns="http://www.w3.org/2000/svg">
<path fill-rule="evenodd" clip-rule="evenodd" d="M295 0L196.697 4.38094e-06L98.398 8.76188e-06C44.104 1.11759e-05 0.0949683 44.8621 0.0949707 100.205C0.0949731 155.547 44.108 200.414 98.398 200.414C152.692 200.414 196.701 155.547 196.701 100.205C196.701 44.8662 240.71 2.41399e-06 295 0ZM90.832 55.6798L139.481 84.3115C150.146 90.5882 150.146 106.284 139.481 112.561L90.832 141.192C80.1637 147.469 66.8323 139.625 66.8323 127.068V69.8044C66.8323 57.251 80.1637 49.4031 90.832 55.6798Z" fill="white" fill-opacity="0.08"/>
</svg>
