<svg width="24" height="24" viewBox="0 0 24 24" fill="none" xmlns="http://www.w3.org/2000/svg">
<g clip-path="url(#clip0_53_2209)">
<path d="M12 0.47998C5.6376 0.47998 0.479996 5.63758 0.479996 12C0.479996 18.3624 5.6376 23.52 12 23.52C18.3624 23.52 23.52 18.3624 23.52 12C23.52 5.63758 18.3624 0.47998 12 0.47998ZM17.2812 9.77998C16.6716 13.2792 13.2636 16.2444 12.24 16.9212C11.2152 17.5956 10.2792 16.6488 9.9408 15.9324C9.552 15.114 8.3892 10.6848 8.0844 10.3164C7.7796 9.94918 6.8652 10.6848 6.8652 10.6848L6.4224 10.092C6.4224 10.092 8.2788 7.83238 9.6912 7.55158C11.1888 7.25158 11.1864 9.89278 11.5464 11.3604C11.8956 12.78 12.1296 13.5912 12.4332 13.5912C12.738 13.5912 13.32 12.8016 13.956 11.5872C14.5944 10.3728 13.9296 9.29998 12.6828 10.0632C13.1808 7.01518 17.8908 6.28078 17.2812 9.77998Z" fill="#141718"/>
</g>
<defs>
<clipPath id="clip0_53_2209">
<rect width="24" height="24" fill="white"/>
</clipPath>
</defs>
</svg>
