<svg width="24" height="24" viewBox="0 0 24 24" fill="none" xmlns="http://www.w3.org/2000/svg">
<g clip-path="url(#clip0_53_2208)">
<path fill-rule="evenodd" clip-rule="evenodd" d="M24 0H0V24H24V0ZM14.233 12L10.6 14.1429V9.85714L14.233 12ZM18.888 9.90714C18.846 9.33571 18.783 8.88571 18.692 8.55C18.517 7.90714 18.111 7.49286 17.481 7.31429C16.76 7.11429 14.933 7 12 7L10.887 7.04286C10.117 7.04286 9.284 7.06429 8.374 7.11429C7.45 7.15714 6.848 7.22143 6.519 7.31429C5.889 7.49286 5.483 7.90714 5.308 8.55C5.112 9.28571 5 10.4357 5 12L5.042 12.6C5.042 13.0286 5.063 13.5214 5.112 14.0929C5.154 14.6643 5.217 15.1143 5.308 15.45C5.483 16.0929 5.889 16.5071 6.519 16.6857C7.24 16.8857 9.067 17 12 17L13.113 16.9571C13.883 16.9571 14.716 16.9357 15.626 16.8857C16.55 16.8429 17.152 16.7786 17.481 16.6857C18.111 16.5071 18.517 16.0929 18.692 15.45C18.888 14.7143 19 13.5643 19 12L18.958 11.4C18.958 10.9714 18.937 10.4786 18.888 9.90714Z" fill="#141718"/>
</g>
<defs>
<clipPath id="clip0_53_2208">
<rect width="24" height="24" rx="12" fill="white"/>
</clipPath>
</defs>
</svg>
